<svg width="20" height="20" viewBox="0 0 20 20" fill="none" xmlns="http://www.w3.org/2000/svg">
<g id="add_shopping_cart">
<mask id="mask0_870_1071" style="mask-type:alpha" maskUnits="userSpaceOnUse" x="0" y="0" width="20" height="20">
<rect id="Bounding box" width="20" height="20" fill="#D9D9D9"/>
</mask>
<g mask="url(#mask0_870_1071)">
<path id="add_shopping_cart_2" d="M9.16671 7.50004V5.00004H6.66671V3.33337H9.16671V0.833374H10.8334V3.33337H13.3334V5.00004H10.8334V7.50004H9.16671ZM5.83337 18.3334C5.37504 18.3334 4.98268 18.1702 4.65629 17.8438C4.3299 17.5174 4.16671 17.125 4.16671 16.6667C4.16671 16.2084 4.3299 15.816 4.65629 15.4896C4.98268 15.1632 5.37504 15 5.83337 15C6.29171 15 6.68407 15.1632 7.01046 15.4896C7.33685 15.816 7.50004 16.2084 7.50004 16.6667C7.50004 17.125 7.33685 17.5174 7.01046 17.8438C6.68407 18.1702 6.29171 18.3334 5.83337 18.3334ZM14.1667 18.3334C13.7084 18.3334 13.316 18.1702 12.9896 17.8438C12.6632 17.5174 12.5 17.125 12.5 16.6667C12.5 16.2084 12.6632 15.816 12.9896 15.4896C13.316 15.1632 13.7084 15 14.1667 15C14.625 15 15.0174 15.1632 15.3438 15.4896C15.6702 15.816 15.8334 16.2084 15.8334 16.6667C15.8334 17.125 15.6702 17.5174 15.3438 17.8438C15.0174 18.1702 14.625 18.3334 14.1667 18.3334ZM5.83337 14.1667C5.20837 14.1667 4.72921 13.8924 4.39587 13.3438C4.06254 12.7952 4.0556 12.25 4.37504 11.7084L5.50004 9.66671L2.50004 3.33337H0.833374V1.66671H3.56254L7.10421 9.16671H12.9584L16.1875 3.33337L17.6459 4.12504L14.4167 9.95837C14.2639 10.2362 14.0625 10.4514 13.8125 10.6042C13.5625 10.757 13.2778 10.8334 12.9584 10.8334H6.75004L5.83337 12.5H15.8334V14.1667H5.83337Z" fill="#F76707"/>
</g>
</g>
</svg>
