<svg width="20" height="20" viewBox="0 0 20 20" fill="none" xmlns="http://www.w3.org/2000/svg">
<g id="monetization_on">
<mask id="mask0_870_1239" style="mask-type:alpha" maskUnits="userSpaceOnUse" x="0" y="0" width="20" height="20">
<rect id="Bounding box" width="20" height="20" fill="#D9D9D9"/>
</mask>
<g mask="url(#mask0_870_1239)">
<path id="monetization_on_2" d="M9.25008 15.8333H10.7084V14.7916C11.4029 14.6666 12.0001 14.3958 12.5001 13.9791C13.0001 13.5625 13.2501 12.9444 13.2501 12.125C13.2501 11.5416 13.0834 11.0069 12.7501 10.5208C12.4167 10.0347 11.7501 9.61107 10.7501 9.24996C9.91675 8.97218 9.34036 8.72913 9.02091 8.52079C8.70147 8.31246 8.54175 8.02774 8.54175 7.66663C8.54175 7.30551 8.67022 7.02079 8.92717 6.81246C9.18411 6.60413 9.55564 6.49996 10.0417 6.49996C10.4862 6.49996 10.8334 6.6076 11.0834 6.82288C11.3334 7.03815 11.514 7.30551 11.6251 7.62496L12.9584 7.08329C12.8056 6.59718 12.5244 6.17357 12.1147 5.81246C11.7049 5.45135 11.2501 5.24996 10.7501 5.20829V4.16663H9.29175V5.20829C8.5973 5.36107 8.05564 5.66663 7.66675 6.12496C7.27786 6.58329 7.08341 7.09718 7.08341 7.66663C7.08341 8.3194 7.27439 8.84718 7.65633 9.24996C8.03828 9.65274 8.63897 9.99996 9.45842 10.2916C10.3334 10.6111 10.9411 10.8958 11.2813 11.1458C11.6216 11.3958 11.7917 11.7222 11.7917 12.125C11.7917 12.5833 11.6286 12.9201 11.3022 13.1354C10.9758 13.3507 10.5834 13.4583 10.1251 13.4583C9.66675 13.4583 9.2605 13.3159 8.90633 13.0312C8.55216 12.7465 8.29175 12.3194 8.12508 11.75L6.75008 12.2916C6.94453 12.9583 7.24661 13.4965 7.65633 13.9062C8.06605 14.3159 8.5973 14.5972 9.25008 14.75V15.8333ZM10.0001 18.3333C8.8473 18.3333 7.76397 18.1145 6.75008 17.677C5.73619 17.2395 4.85425 16.6458 4.10425 15.8958C3.35425 15.1458 2.7605 14.2638 2.323 13.25C1.8855 12.2361 1.66675 11.1527 1.66675 9.99996C1.66675 8.84718 1.8855 7.76385 2.323 6.74996C2.7605 5.73607 3.35425 4.85413 4.10425 4.10413C4.85425 3.35413 5.73619 2.76038 6.75008 2.32288C7.76397 1.88538 8.8473 1.66663 10.0001 1.66663C11.1529 1.66663 12.2362 1.88538 13.2501 2.32288C14.264 2.76038 15.1459 3.35413 15.8959 4.10413C16.6459 4.85413 17.2397 5.73607 17.6772 6.74996C18.1147 7.76385 18.3334 8.84718 18.3334 9.99996C18.3334 11.1527 18.1147 12.2361 17.6772 13.25C17.2397 14.2638 16.6459 15.1458 15.8959 15.8958C15.1459 16.6458 14.264 17.2395 13.2501 17.677C12.2362 18.1145 11.1529 18.3333 10.0001 18.3333ZM10.0001 16.6666C11.8612 16.6666 13.4376 16.0208 14.7292 14.7291C16.0209 13.4375 16.6667 11.8611 16.6667 9.99996C16.6667 8.13885 16.0209 6.56246 14.7292 5.27079C13.4376 3.97913 11.8612 3.33329 10.0001 3.33329C8.13897 3.33329 6.56258 3.97913 5.27091 5.27079C3.97925 6.56246 3.33341 8.13885 3.33341 9.99996C3.33341 11.8611 3.97925 13.4375 5.27091 14.7291C6.56258 16.0208 8.13897 16.6666 10.0001 16.6666Z" fill="#F76707"/>
</g>
</g>
</svg>
