<svg width="20" height="20" viewBox="0 0 20 20" fill="none" xmlns="http://www.w3.org/2000/svg">
<g id="shopping_cart">
<mask id="mask0_870_1326" style="mask-type:alpha" maskUnits="userSpaceOnUse" x="0" y="0" width="20" height="20">
<rect id="Bounding box" width="20" height="20" fill="#D9D9D9"/>
</mask>
<g mask="url(#mask0_870_1326)">
<path id="shopping_cart_2" d="M5.83325 18.3333C5.37492 18.3333 4.98256 18.1701 4.65617 17.8437C4.32978 17.5173 4.16659 17.125 4.16659 16.6666C4.16659 16.2083 4.32978 15.8159 4.65617 15.4895C4.98256 15.1632 5.37492 15 5.83325 15C6.29158 15 6.68395 15.1632 7.01033 15.4895C7.33672 15.8159 7.49992 16.2083 7.49992 16.6666C7.49992 17.125 7.33672 17.5173 7.01033 17.8437C6.68395 18.1701 6.29158 18.3333 5.83325 18.3333ZM14.1666 18.3333C13.7083 18.3333 13.3159 18.1701 12.9895 17.8437C12.6631 17.5173 12.4999 17.125 12.4999 16.6666C12.4999 16.2083 12.6631 15.8159 12.9895 15.4895C13.3159 15.1632 13.7083 15 14.1666 15C14.6249 15 15.0173 15.1632 15.3437 15.4895C15.6701 15.8159 15.8333 16.2083 15.8333 16.6666C15.8333 17.125 15.6701 17.5173 15.3437 17.8437C15.0173 18.1701 14.6249 18.3333 14.1666 18.3333ZM5.12492 4.99996L7.12492 9.16663H12.9583L15.2499 4.99996H5.12492ZM4.33325 3.33329H16.6249C16.9444 3.33329 17.1874 3.47565 17.3541 3.76038C17.5208 4.0451 17.5277 4.33329 17.3749 4.62496L14.4166 9.95829C14.2638 10.2361 14.0589 10.4513 13.802 10.6041C13.5451 10.7569 13.2638 10.8333 12.9583 10.8333H6.74992L5.83325 12.5H15.8333V14.1666H5.83325C5.20825 14.1666 4.73603 13.8923 4.41659 13.3437C4.09714 12.7951 4.08325 12.25 4.37492 11.7083L5.49992 9.66663L2.49992 3.33329H0.833252V1.66663H3.54159L4.33325 3.33329Z" fill="#F76707"/>
</g>
</g>
</svg>
