<svg width="20" height="21" viewBox="0 0 20 21" fill="none" xmlns="http://www.w3.org/2000/svg">
<g id="icon / add_shopping_cart">
<mask id="mask0_870_2948" style="mask-type:alpha" maskUnits="userSpaceOnUse" x="0" y="0" width="20" height="21">
<rect id="Bounding box" y="0.5" width="20" height="20" fill="#D9D9D9"/>
</mask>
<g mask="url(#mask0_870_2948)">
<path id="add_shopping_cart" d="M9.16634 8.00004V5.50004H6.66634V3.83337H9.16634V1.33337H10.833V3.83337H13.333V5.50004H10.833V8.00004H9.16634ZM5.83301 18.8334C5.37467 18.8334 4.98231 18.6702 4.65592 18.3438C4.32954 18.0174 4.16634 17.625 4.16634 17.1667C4.16634 16.7084 4.32954 16.316 4.65592 15.9896C4.98231 15.6632 5.37467 15.5 5.83301 15.5C6.29134 15.5 6.6837 15.6632 7.01009 15.9896C7.33648 16.316 7.49968 16.7084 7.49968 17.1667C7.49968 17.625 7.33648 18.0174 7.01009 18.3438C6.6837 18.6702 6.29134 18.8334 5.83301 18.8334ZM14.1663 18.8334C13.708 18.8334 13.3156 18.6702 12.9893 18.3438C12.6629 18.0174 12.4997 17.625 12.4997 17.1667C12.4997 16.7084 12.6629 16.316 12.9893 15.9896C13.3156 15.6632 13.708 15.5 14.1663 15.5C14.6247 15.5 15.017 15.6632 15.3434 15.9896C15.6698 16.316 15.833 16.7084 15.833 17.1667C15.833 17.625 15.6698 18.0174 15.3434 18.3438C15.017 18.6702 14.6247 18.8334 14.1663 18.8334ZM5.83301 14.6667C5.20801 14.6667 4.72884 14.3924 4.39551 13.8438C4.06217 13.2952 4.05523 12.75 4.37467 12.2084L5.49967 10.1667L2.49967 3.83337H0.833008V2.16671H3.56217L7.10384 9.66671H12.958L16.1872 3.83337L17.6455 4.62504L14.4163 10.4584C14.2636 10.7362 14.0622 10.9514 13.8122 11.1042C13.5622 11.257 13.2775 11.3334 12.958 11.3334H6.74968L5.83301 13H15.833V14.6667H5.83301Z" fill="white"/>
</g>
</g>
</svg>
