<svg width="20" height="20" viewBox="0 0 20 20" fill="none" xmlns="http://www.w3.org/2000/svg">
<g id="icon / shopping_cart">
<mask id="mask0_100_4055" style="mask-type:alpha" maskUnits="userSpaceOnUse" x="0" y="0" width="20" height="20">
<rect id="Bounding box" width="20" height="20" fill="#D9D9D9"/>
</mask>
<g mask="url(#mask0_100_4055)">
<path id="shopping_cart" d="M5.83301 18.3334C5.37467 18.3334 4.98231 18.1702 4.65592 17.8438C4.32954 17.5174 4.16634 17.125 4.16634 16.6667C4.16634 16.2084 4.32954 15.816 4.65592 15.4896C4.98231 15.1632 5.37467 15 5.83301 15C6.29134 15 6.6837 15.1632 7.01009 15.4896C7.33648 15.816 7.49967 16.2084 7.49967 16.6667C7.49967 17.125 7.33648 17.5174 7.01009 17.8438C6.6837 18.1702 6.29134 18.3334 5.83301 18.3334ZM14.1663 18.3334C13.708 18.3334 13.3156 18.1702 12.9893 17.8438C12.6629 17.5174 12.4997 17.125 12.4997 16.6667C12.4997 16.2084 12.6629 15.816 12.9893 15.4896C13.3156 15.1632 13.708 15 14.1663 15C14.6247 15 15.017 15.1632 15.3434 15.4896C15.6698 15.816 15.833 16.2084 15.833 16.6667C15.833 17.125 15.6698 17.5174 15.3434 17.8438C15.017 18.1702 14.6247 18.3334 14.1663 18.3334ZM5.12467 5.00002L7.12467 9.16669H12.958L15.2497 5.00002H5.12467ZM4.33301 3.33335H16.6247C16.9441 3.33335 17.1872 3.47571 17.3538 3.76044C17.5205 4.04516 17.5275 4.33335 17.3747 4.62502L14.4163 9.95835C14.2636 10.2361 14.0587 10.4514 13.8018 10.6042C13.5448 10.757 13.2636 10.8334 12.958 10.8334H6.74967L5.83301 12.5H15.833V14.1667H5.83301C5.20801 14.1667 4.73579 13.8924 4.41634 13.3438C4.0969 12.7952 4.08301 12.25 4.37467 11.7084L5.49967 9.66669L2.49967 3.33335H0.833008V1.66669H3.54134L4.33301 3.33335Z" fill="white"/>
</g>
</g>
</svg>
