<svg width="31" height="31" viewBox="0 0 31 31" fill="none" xmlns="http://www.w3.org/2000/svg">
<g id="American logo" clip-path="url(#clip0_783_434)">
<g id="XMLID_1_">
<path id="XMLID_20_" d="M30.3729 0.943359H0.549805V30.876H30.3729V20.9988C30.4889 20.8277 30.5498 20.608 30.5498 20.3391C30.5498 20.0338 30.4889 19.8445 30.3729 19.6852" fill="url(#paint0_radial_783_434)"/>
<path id="Vector" d="M3.2375 13.8944L2.66328 12.4957L2.09492 13.8944M15.8768 13.3383C15.7607 13.4057 15.6266 13.4115 15.4613 13.4115H14.4471V12.6299H15.4795C15.626 12.6299 15.7789 12.6358 15.8768 12.6908C15.9869 12.7395 16.0537 12.8496 16.0537 13.0026C16.0537 13.1549 15.9863 13.2832 15.8768 13.3383ZM23.1459 13.8944L22.5658 12.4957L21.9916 13.8944H23.1459ZM9.60312 15.409H8.7418L8.73594 12.6598L7.52012 15.409H6.78711L5.56543 12.6598V15.409H3.86094L3.53691 14.6274H1.79609L1.47207 15.409H0.562109L2.05859 11.9028H3.30488L4.73457 15.2198V11.9028H6.10273L7.20254 14.2793L8.21035 11.9028H9.60312V15.409ZM13.0238 15.409H10.226V11.9028H13.0238V12.6358H11.0627V13.2651H12.9811V13.9799H11.0691V14.6824H13.0303V15.4096H13.0238V15.409ZM16.976 12.8432C16.976 13.4051 16.6033 13.6922 16.3836 13.7778C16.567 13.8451 16.7258 13.9735 16.799 14.0707C16.915 14.2477 16.9396 14.4006 16.9396 14.7123V15.4026H16.0965L16.0906 14.9625C16.0906 14.7487 16.1088 14.4492 15.9564 14.2781C15.834 14.1557 15.6447 14.1252 15.3453 14.1252H14.4471V15.402H13.6104V11.9016H15.5404C15.9682 11.9016 16.2857 11.9139 16.5547 12.0662C16.8172 12.2262 16.976 12.4524 16.976 12.8432ZM18.3143 15.409H17.4588V11.9028H18.3143V15.409ZM28.2406 15.409H27.0553L25.4668 12.7764V15.409H23.7623L23.4383 14.6274H21.6975L21.3799 15.409H20.3961C19.9865 15.409 19.4738 15.3176 19.1803 15.024C18.8873 14.7246 18.7344 14.3215 18.7344 13.6864C18.7344 13.1672 18.8258 12.6908 19.1861 12.3182C19.4551 12.0369 19.8828 11.9086 20.457 11.9086H21.2697V12.6598H20.4758C20.1705 12.6598 19.9994 12.7026 19.8283 12.8672C19.6877 13.0137 19.5898 13.2949 19.5898 13.6612C19.5898 14.0397 19.6631 14.3086 19.8219 14.4856C19.9502 14.6262 20.1887 14.669 20.4084 14.669H20.7869L21.9658 11.9139H23.2244L24.6418 15.2309V11.9016H25.9186L27.391 14.3449V11.9016H28.2523L28.2406 15.409ZM0.549805 16.0934H1.97949L2.30352 15.3117H3.02422L3.34824 16.0934H6.16426V15.501L6.41445 16.0998H7.87461L8.1248 15.4951V16.0998H15.125L15.1191 14.8231H15.2533C15.3512 14.8289 15.3758 14.8354 15.3758 14.9942V16.1057H18.998V15.8063C19.291 15.9651 19.7434 16.1057 20.3422 16.1057H21.8633L22.1873 15.324H22.908L23.2256 16.1057H26.1641V15.3668L26.61 16.1057H28.9865V11.2125H26.6592V11.7926L26.3352 11.2125H23.9469V11.7926L23.6475 11.2125H20.4219C19.8846 11.2125 19.4076 11.2858 19.0232 11.4996V11.2125H16.7938V11.4996C16.5494 11.2858 16.2195 11.2125 15.8469 11.2125H7.70293L7.15918 12.477L6.59727 11.2125H4.03203V11.7926L3.75078 11.2125H1.56406L0.549805 13.5276V16.0934Z" fill="white"/>
<path id="Vector_2" d="M30.3725 18.6832H28.8455C28.6926 18.6832 28.5889 18.6891 28.5033 18.7441C28.4178 18.7992 28.3809 18.8848 28.3809 18.9943C28.3809 19.1285 28.4541 19.2141 28.5643 19.2568C28.6498 19.2873 28.7477 19.2996 28.8883 19.2996L29.34 19.3119C29.7982 19.3242 30.1035 19.4033 30.2928 19.5932C30.3297 19.6178 30.3479 19.6482 30.3725 19.6787M30.3725 20.9988C30.1709 21.2982 29.7736 21.4447 29.2363 21.4447H27.6174V20.6936H29.2299C29.3887 20.6936 29.5047 20.6754 29.5721 20.608C29.633 20.5529 29.6699 20.4738 29.6699 20.3818C29.6699 20.2781 29.6271 20.1984 29.5662 20.1498C29.5053 20.0947 29.4197 20.0701 29.2732 20.0701C28.4852 20.0455 27.502 20.0947 27.502 18.9826C27.502 18.4758 27.826 17.9379 28.7055 17.9379H30.373V17.2412H28.8215C28.351 17.2412 28.0152 17.3514 27.7709 17.5283V17.2412H25.474C25.1072 17.2412 24.6736 17.3326 24.4721 17.5283V17.2412H20.3729V17.5283C20.0488 17.2898 19.4992 17.2412 19.2426 17.2412H16.5426V17.5283C16.2859 17.2781 15.7117 17.2412 15.3637 17.2412H12.3396L11.6494 17.9924L11.002 17.2412H6.48145V22.1344H10.9164L11.6312 21.3709L12.3033 22.1344H15.0338V20.9859H15.3027C15.6631 20.9918 16.0908 20.9801 16.4693 20.8148V22.1344H18.7234V20.8576H18.8336C18.9742 20.8576 18.9865 20.8635 18.9865 21.0041V22.1344H25.8344C26.268 22.1344 26.7262 22.0242 26.977 21.8227V22.1344H29.152C29.6037 22.1344 30.0437 22.0734 30.3801 21.9082V20.9982H30.3725V20.9988ZM27.0309 19.5937C27.1955 19.7648 27.2811 19.9787 27.2811 20.3391C27.2811 21.0967 26.8105 21.4447 25.9615 21.4447H24.3303V20.6936H25.9551C26.1139 20.6936 26.224 20.6754 26.2973 20.608C26.3523 20.5529 26.3951 20.4738 26.3951 20.3818C26.3951 20.2781 26.3523 20.1984 26.2914 20.1498C26.2305 20.0947 26.1385 20.0701 25.992 20.0701C25.2104 20.0455 24.2266 20.0947 24.2266 18.9826C24.2266 18.4758 24.5441 17.9379 25.4236 17.9379H27.1035V18.6832H25.5643C25.4113 18.6832 25.3141 18.6891 25.2285 18.7441C25.1371 18.7992 25.1002 18.8848 25.1002 18.9943C25.1002 19.1285 25.1799 19.2141 25.2836 19.2568C25.3691 19.2873 25.467 19.2996 25.6076 19.2996L26.0594 19.3119C26.5299 19.3248 26.8416 19.4039 27.0309 19.5937ZM19.4682 19.3799C19.358 19.4473 19.218 19.4531 19.0527 19.4531H18.0326V18.665H19.065C19.2115 18.665 19.3645 18.6709 19.4623 18.726C19.5725 18.7811 19.6334 18.8906 19.6334 19.0436C19.6393 19.1906 19.5719 19.3125 19.4682 19.3799ZM19.975 19.8135C20.1643 19.8809 20.3172 20.0027 20.3846 20.1064C20.5006 20.2775 20.5187 20.4363 20.5252 20.748V21.4447H19.682V21.0047C19.682 20.7908 19.7002 20.4791 19.5479 20.3203C19.4254 20.192 19.2361 20.1674 18.9309 20.1674H18.0326V21.45H17.1895V17.9437H19.126C19.5473 17.9437 19.859 17.9619 20.1338 18.1084C20.3963 18.2672 20.5674 18.4869 20.5674 18.89C20.568 19.4408 20.1953 19.7279 19.975 19.8135ZM21.032 17.9379H23.8299V18.665H21.8687V19.3002H23.7871V20.015H21.8687V20.7117L23.8299 20.7176V21.4447H21.032V17.9379ZM15.3754 19.5568H14.2943V18.665H15.3877C15.693 18.665 15.901 18.7875 15.901 19.0928C15.901 19.398 15.6988 19.5568 15.3754 19.5568ZM13.457 21.1266L12.168 19.6969L13.457 18.3164V21.1266ZM10.1342 20.7117H8.07578V20.015H9.91445V19.3002H8.07578V18.665H10.177L11.0934 19.6852L10.1342 20.7117ZM16.7986 19.0928C16.7986 20.0701 16.0715 20.2658 15.3385 20.2658H14.2937V21.4447H12.6625L11.6301 20.284L10.5549 21.4447H7.23789V17.9385H10.61L11.6424 19.0869L12.7111 17.9385H15.3865C16.0533 17.9379 16.7986 18.1213 16.7986 19.0928Z" fill="white"/>
</g>
</g>
<defs>
<radialGradient id="paint0_radial_783_434" cx="0" cy="0" r="1" gradientUnits="userSpaceOnUse" gradientTransform="translate(5.81249 6.16946) scale(27.9878)">
<stop stop-color="#9DD5F6"/>
<stop offset="0.0711" stop-color="#98D3F5"/>
<stop offset="0.1575" stop-color="#89CEF3"/>
<stop offset="0.2516" stop-color="#70C6EF"/>
<stop offset="0.3514" stop-color="#4EBBEA"/>
<stop offset="0.4546" stop-color="#23ADE3"/>
<stop offset="0.5" stop-color="#0DA6E0"/>
<stop offset="1" stop-color="#2E77BC"/>
</radialGradient>
<clipPath id="clip0_783_434">
<rect width="30" height="30" fill="white" transform="translate(0.429688 0.874756)"/>
</clipPath>
</defs>
</svg>
