<svg width="25" height="25" viewBox="0 0 25 25" fill="none" xmlns="http://www.w3.org/2000/svg">
<g id="call">
<mask id="mask0_783_366" style="mask-type:alpha" maskUnits="userSpaceOnUse" x="0" y="0" width="25" height="25">
<rect id="Bounding box" x="0.711914" y="0.36499" width="24" height="24" fill="#D9D9D9"/>
</mask>
<g mask="url(#mask0_783_366)">
<path id="call_2" d="M20.6619 21.365C18.5119 21.365 16.4161 20.8858 14.3744 19.9275C12.3327 18.9692 10.5244 17.7025 8.94941 16.1275C7.37441 14.5525 6.10775 12.7442 5.14941 10.7025C4.19108 8.66082 3.71191 6.56499 3.71191 4.41499C3.71191 4.11499 3.81191 3.86499 4.01191 3.66499C4.21191 3.46499 4.46191 3.36499 4.76191 3.36499H8.81191C9.04525 3.36499 9.25358 3.43999 9.43691 3.58999C9.62025 3.73999 9.72858 3.93166 9.76191 4.16499L10.4119 7.66499C10.4452 7.89832 10.4411 8.11082 10.3994 8.30249C10.3577 8.49416 10.2619 8.66499 10.1119 8.81499L7.68691 11.265C8.38691 12.465 9.26608 13.59 10.3244 14.64C11.3827 15.69 12.5452 16.5983 13.8119 17.365L16.1619 15.015C16.3119 14.865 16.5077 14.7525 16.7494 14.6775C16.9911 14.6025 17.2286 14.5817 17.4619 14.615L20.9119 15.315C21.1452 15.365 21.3369 15.4775 21.4869 15.6525C21.6369 15.8275 21.7119 16.0317 21.7119 16.265V20.315C21.7119 20.615 21.6119 20.865 21.4119 21.065C21.2119 21.265 20.9619 21.365 20.6619 21.365ZM6.73691 9.36499L8.38691 7.71499L7.96191 5.36499H5.73691C5.82025 6.04832 5.93691 6.72332 6.08691 7.38999C6.23691 8.05666 6.45358 8.71499 6.73691 9.36499ZM15.6869 18.315C16.3369 18.5983 16.9994 18.8233 17.6744 18.99C18.3494 19.1567 19.0286 19.265 19.7119 19.315V17.115L17.3619 16.64L15.6869 18.315Z" fill="white"/>
</g>
</g>
</svg>
