<svg width="25" height="25" viewBox="0 0 25 25" fill="none" xmlns="http://www.w3.org/2000/svg">
<g id="captive_portal">
<mask id="mask0_783_377" style="mask-type:alpha" maskUnits="userSpaceOnUse" x="0" y="0" width="25" height="25">
<rect id="Bounding box" x="0.711914" y="0.36499" width="24" height="24" fill="#D9D9D9"/>
</mask>
<g mask="url(#mask0_783_377)">
<path id="captive_portal_2" d="M10.1119 19.915C9.81191 19.365 9.54941 18.7942 9.32441 18.2025C9.09941 17.6108 8.91191 16.9983 8.76191 16.365H5.81191C6.29525 17.1983 6.89941 17.9233 7.62441 18.54C8.34941 19.1567 9.17858 19.615 10.1119 19.915ZM4.96191 14.365H8.36191C8.31191 14.0317 8.27441 13.7025 8.24941 13.3775C8.22441 13.0525 8.21191 12.715 8.21191 12.365C8.21191 12.015 8.22441 11.6775 8.24941 11.3525C8.27441 11.0275 8.31191 10.6983 8.36191 10.365H4.96191C4.87858 10.6983 4.81608 11.0275 4.77441 11.3525C4.73275 11.6775 4.71191 12.015 4.71191 12.365C4.71191 12.715 4.73275 13.0525 4.77441 13.3775C4.81608 13.7025 4.87858 14.0317 4.96191 14.365ZM5.81191 8.36499H8.76191C8.91191 7.73166 9.09941 7.11916 9.32441 6.52749C9.54941 5.93582 9.81191 5.36499 10.1119 4.81499C9.17858 5.11499 8.34941 5.57332 7.62441 6.18999C6.89941 6.80666 6.29525 7.53166 5.81191 8.36499ZM10.8119 8.36499H14.6119C14.4119 7.63166 14.1536 6.93999 13.8369 6.28999C13.5202 5.63999 13.1452 5.01499 12.7119 4.41499C12.2786 5.01499 11.9036 5.63999 11.5869 6.28999C11.2702 6.93999 11.0119 7.63166 10.8119 8.36499ZM16.6619 8.36499H19.6119C19.1286 7.53166 18.5244 6.80666 17.7994 6.18999C17.0744 5.57332 16.2452 5.11499 15.3119 4.81499C15.6119 5.36499 15.8744 5.93582 16.0994 6.52749C16.3244 7.11916 16.5119 7.73166 16.6619 8.36499ZM12.7119 22.365C11.3452 22.365 10.0536 22.1025 8.83691 21.5775C7.62025 21.0525 6.55775 20.3358 5.64941 19.4275C4.74108 18.5192 4.02441 17.4567 3.49941 16.24C2.97441 15.0233 2.71191 13.7317 2.71191 12.365C2.71191 10.9817 2.97441 9.68582 3.49941 8.47749C4.02441 7.26916 4.74108 6.21082 5.64941 5.30249C6.55775 4.39416 7.62025 3.67749 8.83691 3.15249C10.0536 2.62749 11.3452 2.36499 12.7119 2.36499C14.0952 2.36499 15.3911 2.62749 16.5994 3.15249C17.8077 3.67749 18.8661 4.39416 19.7744 5.30249C20.6827 6.21082 21.3994 7.26916 21.9244 8.47749C22.4494 9.68582 22.7119 10.9817 22.7119 12.365C22.7119 12.5317 22.7077 12.6983 22.6994 12.865C22.6911 13.0317 22.6786 13.1983 22.6619 13.365H20.6369C20.6702 13.1983 20.6911 13.0358 20.6994 12.8775C20.7077 12.7192 20.7119 12.5483 20.7119 12.365C20.7119 12.015 20.6911 11.6775 20.6494 11.3525C20.6077 11.0275 20.5452 10.6983 20.4619 10.365H17.0619C17.1119 10.6983 17.1494 11.0275 17.1744 11.3525C17.1994 11.6775 17.2119 12.015 17.2119 12.365V12.8775C17.2119 13.0358 17.2036 13.1983 17.1869 13.365H15.1869C15.2036 13.1983 15.2119 13.0358 15.2119 12.8775V12.365C15.2119 12.015 15.1994 11.6775 15.1744 11.3525C15.1494 11.0275 15.1119 10.6983 15.0619 10.365H10.3619C10.3119 10.6983 10.2744 11.0275 10.2494 11.3525C10.2244 11.6775 10.2119 12.015 10.2119 12.365C10.2119 12.715 10.2244 13.0525 10.2494 13.3775C10.2744 13.7025 10.3119 14.0317 10.3619 14.365H13.7119V16.365H10.8119C11.0119 17.0983 11.2702 17.79 11.5869 18.44C11.9036 19.09 12.2786 19.715 12.7119 20.315C12.8952 20.0483 13.0702 19.7775 13.2369 19.5025C13.4036 19.2275 13.5619 18.9483 13.7119 18.665V22.315C13.5452 22.3317 13.3827 22.3442 13.2244 22.3525C13.0661 22.3608 12.8952 22.365 12.7119 22.365ZM20.6619 21.74L17.7119 18.79V21.015H15.7119V15.365H21.3619V17.365H19.1119L22.0619 20.315L20.6619 21.74Z" fill="white"/>
</g>
</g>
</svg>
