<svg width="61" height="23" viewBox="0 0 61 23" fill="none" xmlns="http://www.w3.org/2000/svg">
<g id="elo logo" clip-path="url(#clip0_783_429)">
<path id="Vector" d="M9.4105 5.72274C10.0498 5.5065 10.7361 5.39368 11.4507 5.39368C14.572 5.39368 17.1763 7.61248 17.7686 10.5552L22.1874 9.65265C21.172 4.65095 16.7532 0.880859 11.4507 0.880859C10.2379 0.880859 9.07204 1.0783 7.98145 1.44496L9.4105 5.72274Z" fill="#FFF100"/>
<path id="Vector_2" d="M4.19292 20.051L7.18266 16.6664C5.84762 15.4818 5.01087 13.7613 5.01087 11.8339C5.01087 9.91596 5.84762 8.18605 7.18266 7.01083L4.19292 3.63562C1.92711 5.64759 0.498047 8.57152 0.498047 11.8433C0.498047 15.1057 1.92711 18.0389 4.19292 20.051Z" fill="#00A3DF"/>
<path id="Vector_3" d="M17.7683 13.1313C17.1666 16.0741 14.5717 18.2835 11.4503 18.2835C10.7358 18.2835 10.0495 18.1707 9.40074 17.9544L7.97168 22.2322C9.06228 22.5988 10.2375 22.7963 11.4503 22.7963C16.7529 22.7963 21.1717 19.0356 22.1871 14.0339L17.7683 13.1313Z" fill="#EE4023"/>
<path id="Vector_4" d="M36.9107 16.1587C36.1774 16.8733 35.1902 17.3057 34.0996 17.2869C33.3474 17.2775 32.6519 17.0518 32.0688 16.6758L30.6021 19.0075C31.608 19.6373 32.7832 20.0134 34.062 20.0322C35.9141 20.0604 37.6063 19.327 38.8381 18.133L36.9107 16.1587ZM34.2595 6.65354C30.5739 6.59713 27.5278 9.54927 27.4713 13.2347C27.4525 14.6168 27.8474 15.9142 28.5525 16.986L40.6619 11.8056C39.9851 8.90055 37.3903 6.70995 34.2596 6.65354M30.2449 13.7611C30.2261 13.6107 30.2167 13.4509 30.2167 13.2911C30.2543 11.1193 32.0408 9.37994 34.2125 9.41755C35.3971 9.43635 36.45 9.97225 37.1551 10.8184L30.2449 13.7611ZM44.4697 3.6449V16.5534L46.7074 17.4842L45.6449 20.0321L43.4261 19.1107C42.9279 18.8945 42.5894 18.5654 42.3355 18.1893C42.0911 17.8133 41.9031 17.2867 41.9031 16.5911V3.6449H44.4697ZM52.5459 9.61498C52.9409 9.48336 53.3544 9.41755 53.7964 9.41755C55.7049 9.41755 57.2845 10.7714 57.6511 12.5671L60.3493 12.0124C59.7288 8.95686 57.0306 6.66285 53.7964 6.66285C53.0537 6.66285 52.3392 6.78507 51.681 7.00131L52.5459 9.61498ZM49.3586 18.3492L51.1826 16.2902C50.3647 15.5663 49.8569 14.5133 49.8569 13.3381C49.8569 12.1628 50.374 11.1099 51.1826 10.3953L49.3586 8.33635C47.9767 9.55857 47.1022 11.3543 47.1022 13.3475C47.1022 15.3406 47.9767 17.1269 49.3586 18.3492ZM57.6511 14.1371C57.2845 15.9329 55.6955 17.2867 53.7964 17.2867C53.3639 17.2867 52.9409 17.2115 52.5459 17.0799L51.6716 19.6936C52.3391 19.9192 53.0536 20.0415 53.7964 20.0415C57.0306 20.0415 59.7289 17.7475 60.3493 14.6919L57.6511 14.1371Z" fill="black"/>
</g>
<defs>
<clipPath id="clip0_783_429">
<rect width="59.9829" height="22" fill="white" transform="translate(0.446289 0.874756)"/>
</clipPath>
</defs>
</svg>
