<svg width="54" height="24" viewBox="0 0 54 24" fill="none" xmlns="http://www.w3.org/2000/svg">
<g id="Hipercard_logo logo" clip-path="url(#clip0_783_439)">
<path id="path2997" d="M22.4992 23.3608L0.453125 23.3687V23.3156C0.453125 23.2864 0.488287 23.0972 0.531261 22.8951C0.574235 22.6931 0.641047 22.3717 0.679731 22.1809C0.718412 21.9901 0.784552 21.6659 0.826704 21.4605C0.868857 21.255 0.938892 20.9128 0.982339 20.7C1.02579 20.4872 1.09385 20.151 1.13358 19.9529C1.17332 19.7548 1.23966 19.4306 1.28102 19.2325C1.32236 19.0344 1.39286 18.6922 1.43768 18.4721C1.48249 18.2519 1.55061 17.9157 1.58906 17.725C1.62751 17.5342 1.68861 17.24 1.72484 17.0712C1.76106 16.9025 1.80725 16.6744 1.82747 16.5643C1.84769 16.4542 1.91313 16.13 1.97288 15.8439C2.03263 15.5577 2.0986 15.2335 2.11947 15.1235C2.14035 15.0134 2.20661 14.6892 2.26672 14.403C2.32684 14.1169 2.39287 13.7927 2.41347 13.6826C2.43407 13.5726 2.50048 13.2484 2.56104 12.9622C2.6216 12.676 2.68697 12.3578 2.7063 12.2551C2.72563 12.1524 2.77857 11.8882 2.82394 11.6681C2.86932 11.448 2.95518 11.0337 3.01474 10.7476C3.0743 10.4614 3.17618 9.96313 3.24114 9.64027C3.30609 9.31742 3.38371 8.9332 3.41363 8.78645C3.44354 8.63969 3.49764 8.37554 3.53384 8.19944C3.57004 8.02334 3.63578 7.70515 3.67993 7.49236C3.72407 7.27957 3.79589 6.93137 3.83954 6.71858C3.88318 6.50579 3.95043 6.1756 3.98898 5.98482C4.02753 5.79404 4.09333 5.47586 4.1352 5.27774C4.17707 5.07963 4.24908 4.73143 4.29524 4.50396C4.34139 4.2765 4.4187 3.92829 4.46704 3.73018C4.51538 3.53206 4.58373 3.29193 4.61892 3.19654C4.65411 3.10115 4.75126 2.89437 4.83481 2.73703L4.98672 2.45095L5.12483 2.27009C5.20078 2.17062 5.33639 2.01343 5.42618 1.92078C5.51597 1.82814 5.66748 1.68873 5.76287 1.61099C5.85826 1.53325 5.99634 1.42833 6.06971 1.37785C6.14309 1.32735 6.28717 1.23896 6.3899 1.18142C6.49263 1.12387 6.63671 1.04851 6.71009 1.01396C6.78346 0.979398 6.93355 0.916328 7.04361 0.873801C7.15368 0.831273 7.3638 0.759989 7.51055 0.715391C7.6573 0.670794 7.93277 0.603572 8.1227 0.56601C8.31263 0.528447 8.61281 0.478277 8.78976 0.454521L9.11148 0.411327L31.1709 0.402929L53.2304 0.394531V0.447559C53.2304 0.476724 53.195 0.665919 53.1517 0.867993C53.1085 1.07007 53.0362 1.4155 52.9911 1.63563C52.946 1.85576 52.8802 2.17394 52.8449 2.34271C52.8095 2.51147 52.7426 2.83566 52.6962 3.06313C52.6497 3.29059 52.5783 3.63879 52.5374 3.83691C52.4965 4.03502 52.4303 4.35921 52.3903 4.55733C52.3503 4.75544 52.2837 5.07963 52.2423 5.27774C52.201 5.47586 52.1368 5.78804 52.0998 5.97148C52.0627 6.15492 51.9957 6.48511 51.9508 6.70524C51.9059 6.92537 51.8338 7.27357 51.7906 7.47902C51.7473 7.68447 51.6814 8.00266 51.6441 8.1861C51.6069 8.36954 51.5398 8.69973 51.4951 8.91986C51.4504 9.13998 51.3784 9.48819 51.3352 9.69364C51.2919 9.89909 51.2275 10.2113 51.192 10.3874C51.1565 10.5635 51.0896 10.8937 51.0434 11.1211C50.9973 11.3486 50.93 11.6788 50.8939 11.8549C50.8578 12.031 50.7933 12.3432 50.7506 12.5486C50.7079 12.7541 50.635 13.1083 50.5884 13.3357C50.5419 13.5632 50.4754 13.8874 50.4405 14.0562C50.4056 14.2249 50.3404 14.5431 50.2955 14.7632C50.2506 14.9834 50.1792 15.3316 50.1368 15.537C50.0944 15.7425 50.0279 16.0667 49.989 16.2574C49.9502 16.4482 49.8826 16.7784 49.8389 16.9912C49.7952 17.204 49.7238 17.5522 49.6802 17.765C49.6367 17.9778 49.5714 18.296 49.5352 18.4721C49.499 18.6482 49.4327 18.9724 49.388 19.1925C49.3433 19.4126 49.2706 19.7595 49.2264 19.9633L49.1461 20.334L49.0504 20.5904C48.9977 20.7314 48.9186 20.9188 48.8745 21.0069C48.8304 21.0949 48.7406 21.2503 48.675 21.3521C48.6093 21.4539 48.5178 21.5844 48.4716 21.642C48.4254 21.6997 48.2863 21.8485 48.1626 21.9727L47.9375 22.1986L47.721 22.3525C47.6019 22.4371 47.4736 22.5232 47.4359 22.5437C47.3982 22.5643 47.2547 22.6375 47.117 22.7065C46.9794 22.7754 46.7849 22.8632 46.6848 22.9015C46.5848 22.9398 46.3867 23.005 46.2446 23.0464C46.1025 23.0878 45.9502 23.1285 45.9061 23.1369C45.8621 23.1454 45.7093 23.177 45.5665 23.2072C45.4237 23.2374 45.1356 23.2826 44.9261 23.3076L44.5454 23.353L22.4992 23.3608ZM14.6556 17.6583H15.2293L15.2455 17.616C15.2544 17.5928 15.2617 17.5383 15.2617 17.4948C15.2617 17.4513 15.2806 17.2932 15.3037 17.1434C15.3268 16.9937 15.3811 16.649 15.4243 16.3775C15.4675 16.106 15.5321 15.6978 15.568 15.4703C15.6038 15.2429 15.6475 14.9517 15.6652 14.8233C15.6828 14.6949 15.7043 14.5898 15.713 14.5898C15.7216 14.5898 15.7587 14.6465 15.7954 14.7159L15.8621 14.842L16.01 14.991L16.1579 15.1401L16.34 15.2129L16.522 15.2858L16.739 15.314L16.956 15.3421L17.2315 15.3252L17.5069 15.3083L17.8051 15.2311L18.1034 15.1539L18.2635 15.0809C18.3515 15.0407 18.5076 14.953 18.6103 14.8861L18.7971 14.7645L18.9712 14.5904C19.067 14.4947 19.2021 14.3412 19.2714 14.2493C19.3407 14.1574 19.3974 14.0755 19.3974 14.0673C19.3974 14.0591 19.4315 14.0022 19.4731 13.9409C19.5147 13.8796 19.5999 13.7093 19.6624 13.5625C19.7249 13.4158 19.8226 13.1516 19.8794 12.9755L19.9829 12.6554L20.0363 12.378C20.0657 12.2255 20.1035 11.9733 20.1203 11.8177L20.1509 11.5347L20.1333 11.2946L20.1156 11.0544L20.0599 10.8143L20.0043 10.5741L19.9141 10.3944L19.824 10.2146L19.6499 10.03L19.4758 9.84546L19.2699 9.73901L19.0639 9.63256L18.8371 9.57826L18.6103 9.52396L18.3835 9.50731L18.1567 9.49066L17.9041 9.5197L17.6514 9.54873L17.4452 9.60138L17.239 9.65403L17.0599 9.73694C16.9614 9.78255 16.818 9.86 16.7413 9.90906C16.6646 9.95812 16.5855 10.0146 16.5655 10.0345C16.5455 10.0544 16.4976 10.0914 16.4591 10.1165L16.389 10.1623L16.438 9.92799C16.4649 9.7991 16.4875 9.67863 16.488 9.66028L16.4891 9.62693H15.9999H15.5107L15.425 10.1672C15.3778 10.4644 15.3033 10.9237 15.2594 11.1878C15.2156 11.452 15.1494 11.8482 15.1124 12.0683C15.0755 12.2885 15.0095 12.6787 14.9659 12.9355C14.9222 13.1923 14.8501 13.6006 14.8056 13.8427C14.761 14.0849 14.6958 14.4391 14.6606 14.6298C14.6254 14.8206 14.5592 15.1808 14.5134 15.4303C14.4677 15.6798 14.3941 16.076 14.35 16.3108C14.3059 16.5456 14.2341 16.9178 14.1904 17.138C14.1468 17.3581 14.1045 17.5652 14.0965 17.5982L14.0819 17.6583H14.6556ZM17.1254 14.5733L16.9027 14.5867L16.757 14.561L16.6114 14.5353L16.4635 14.4678L16.3157 14.4002L16.2123 14.3016L16.109 14.2029L16.0494 14.0695C16.0166 13.9961 15.9744 13.8715 15.9557 13.7925L15.9218 13.6489L15.9354 13.419L15.949 13.189L16.0177 12.8288C16.0556 12.6307 16.1235 12.2585 16.1686 12.0016C16.2138 11.7448 16.2822 11.3685 16.3206 11.1654L16.3904 10.7962L16.5434 10.6689C16.6275 10.5989 16.7608 10.505 16.8395 10.4604L16.9827 10.3791L17.1695 10.3213L17.3563 10.2635L17.5964 10.2494L17.8365 10.2353L18.0321 10.277L18.2276 10.3187L18.3656 10.3822L18.5036 10.4458L18.6193 10.5621L18.735 10.6784L18.7974 10.8016C18.8318 10.8694 18.88 11.002 18.9046 11.0964L18.9493 11.2679L18.9356 11.7748L18.9219 12.2818L18.8534 12.5815C18.8157 12.7463 18.744 12.9984 18.694 13.1418L18.6031 13.4025L18.4917 13.6135C18.4305 13.7295 18.3361 13.8864 18.2819 13.962C18.2277 14.0376 18.1414 14.1356 18.09 14.1797C18.0387 14.2238 17.9526 14.2927 17.8989 14.3329L17.8011 14.4059L17.5746 14.4829L17.3482 14.5599L17.1254 14.5733ZM22.666 15.3068L22.9595 15.3102L23.253 15.2834C23.4144 15.2687 23.6786 15.238 23.84 15.2153C24.0014 15.1926 24.2803 15.1417 24.4597 15.1022L24.7859 15.0304L24.8022 14.9102C24.8111 14.844 24.8477 14.6472 24.8836 14.4727L24.9487 14.1554L24.9344 14.141L24.92 14.1266L24.8202 14.1748C24.7654 14.2013 24.5946 14.2645 24.4406 14.3152L24.1607 14.4075L23.867 14.4644L23.5732 14.5213L23.1063 14.5222L22.6393 14.5231L22.4792 14.472C22.3912 14.4438 22.2617 14.3924 22.1914 14.3576L22.0637 14.2944L21.9583 14.1992L21.8529 14.104L21.7707 13.9603L21.6885 13.8165L21.6369 13.6363L21.5854 13.456L21.585 13.1224L21.5846 12.7888L21.6304 12.4911L21.6762 12.1935L22.0777 12.1748L22.4792 12.156L23.9635 12.1655L25.4477 12.1751L25.4925 11.985C25.5171 11.8804 25.5548 11.6643 25.5762 11.5047L25.6152 11.2145L25.616 10.9704L25.6168 10.7263L25.5745 10.5441L25.5323 10.3619L25.4624 10.2412C25.424 10.1748 25.3563 10.0787 25.3119 10.0275C25.2676 9.97629 25.1884 9.90413 25.136 9.86711C25.0836 9.8301 24.9807 9.76789 24.9073 9.72888L24.7739 9.65795L24.5408 9.60177L24.3077 9.54559L24.0205 9.51813L23.7333 9.49067L23.4665 9.50804L23.1996 9.52542L22.8795 9.5869L22.5593 9.64839L22.3592 9.7284C22.2491 9.7724 22.081 9.85265 21.9856 9.90673C21.8902 9.96081 21.7581 10.0488 21.6921 10.1023C21.6261 10.1559 21.5117 10.2599 21.438 10.3335C21.3643 10.4072 21.2553 10.5394 21.1957 10.6275C21.1362 10.7155 21.0449 10.8716 20.9929 10.9744C20.9408 11.0771 20.873 11.2212 20.8422 11.2946C20.8114 11.3679 20.7553 11.518 20.7177 11.6281C20.68 11.7381 20.6209 11.9483 20.5862 12.095C20.5515 12.2418 20.504 12.4833 20.4806 12.6318L20.438 12.9019L20.4384 13.2989L20.4388 13.696L20.4794 13.8694C20.5017 13.9648 20.5443 14.1089 20.5742 14.1896C20.604 14.2703 20.6591 14.3904 20.6967 14.4564C20.7343 14.5224 20.8145 14.6288 20.875 14.6927C20.9355 14.7566 21.0451 14.8536 21.1184 14.9082C21.1918 14.9628 21.3224 15.0396 21.4087 15.0789L21.5656 15.1503L21.7843 15.2032C21.9046 15.2323 22.0862 15.2667 22.1878 15.2798C22.2894 15.2928 22.5046 15.305 22.666 15.3068ZM23.1686 11.548C22.4299 11.548 21.8255 11.5428 21.8255 11.5363C21.8255 11.5298 21.857 11.4368 21.8956 11.3295C21.9341 11.2222 22.0017 11.0626 22.0459 10.9747L22.1262 10.8149L22.3027 10.6394L22.4792 10.4638L22.6527 10.3809C22.748 10.3353 22.8741 10.2856 22.9328 10.2705C22.9915 10.2554 23.1596 10.2354 23.3064 10.2261L23.5732 10.209L23.7781 10.2353L23.983 10.2617L24.1319 10.3298L24.2808 10.398L24.3625 10.4861C24.4074 10.5345 24.461 10.6058 24.4815 10.6446L24.5188 10.715L24.5434 10.8714L24.568 11.0277L24.5398 11.2879L24.5117 11.548H23.1686ZM31.1511 15.307L31.4448 15.3102L31.7781 15.2707C31.9615 15.249 32.2055 15.213 32.3205 15.1907C32.4354 15.1684 32.6215 15.1242 32.7341 15.0924C32.8466 15.0606 32.9484 15.0263 32.9603 15.016C32.9722 15.0058 33.004 14.8847 33.0309 14.7469C33.0579 14.6092 33.0918 14.4244 33.1064 14.3363C33.1209 14.2483 33.1284 14.1715 33.1231 14.1658C33.1177 14.16 33.098 14.1674 33.0793 14.1823C33.0606 14.1971 32.9297 14.2522 32.7884 14.3047L32.5315 14.4002L32.1656 14.471L31.7998 14.5419L31.4887 14.5313L31.1776 14.5207L31.0009 14.4594L30.8242 14.3981L30.6877 14.2787L30.5512 14.1593L30.4606 13.9943L30.37 13.8294L30.3269 13.6087L30.2838 13.388L30.284 13.1017L30.2843 12.8154L30.3367 12.4686L30.3891 12.1217L30.4446 11.9349C30.4751 11.8322 30.5096 11.7121 30.5213 11.6681C30.533 11.6241 30.5819 11.498 30.63 11.388C30.6782 11.2779 30.764 11.1078 30.8208 11.0099L30.9241 10.832L31.0509 10.7006L31.1778 10.5692L31.3121 10.4858L31.4465 10.4025L31.619 10.3494C31.7138 10.3202 31.8815 10.2822 31.9916 10.2651L32.1917 10.2339L32.4852 10.2486L32.7787 10.2633L33.1256 10.3328L33.4725 10.4022L33.6135 10.4548C33.6911 10.4838 33.758 10.5074 33.7621 10.5074C33.7663 10.5074 33.7849 10.4084 33.8035 10.2873C33.8221 10.1662 33.8552 9.96705 33.8771 9.84467C33.8989 9.72229 33.9116 9.61689 33.9051 9.61046C33.8987 9.60402 33.7944 9.58747 33.6734 9.57367C33.5524 9.55987 33.2236 9.53536 32.9426 9.51922L32.4318 9.48986L32.0716 9.5175L31.7114 9.54514L31.4446 9.60121L31.1778 9.65729L31.006 9.72601C30.9114 9.76382 30.773 9.83203 30.6983 9.8776C30.6237 9.92317 30.5286 9.98447 30.4871 10.0138C30.4456 10.0432 30.3196 10.1577 30.2072 10.2683L30.0029 10.4694L29.8888 10.6365C29.826 10.7284 29.7175 10.9201 29.6476 11.0625L29.5205 11.3212L29.423 11.6014C29.3695 11.7555 29.2946 12.0076 29.2568 12.1617L29.1879 12.4419L29.163 12.6954L29.138 12.9489L29.1382 13.2824L29.1385 13.6159L29.1637 13.8099L29.1889 14.004L29.2688 14.2036L29.3487 14.4031L29.4411 14.5474L29.5334 14.6917L29.6801 14.8362L29.8269 14.9806L29.9822 15.0627L30.1374 15.1448L30.3414 15.2014C30.4536 15.2326 30.6157 15.2684 30.7017 15.2809C30.7876 15.2935 30.99 15.3052 31.1515 15.307H31.1511ZM35.5401 15.2971L35.9003 15.2868L36.1271 15.2287L36.3539 15.1707L36.5007 15.1013C36.5814 15.0632 36.7135 14.9878 36.7942 14.9339C36.8749 14.88 36.9998 14.7775 37.0718 14.7062C37.1438 14.6348 37.2505 14.5131 37.309 14.4357C37.3675 14.3582 37.4189 14.2984 37.4232 14.3027C37.4275 14.307 37.414 14.4304 37.3933 14.5769C37.3725 14.7234 37.3553 14.9183 37.355 15.0101L37.3545 15.1768H37.8442H38.3339L38.3489 14.7966L38.3639 14.4164L38.4337 13.9228C38.4722 13.6513 38.5342 13.249 38.5717 13.0289C38.6091 12.8088 38.6742 12.4366 38.7163 12.2018C38.7584 11.967 38.8251 11.6007 38.8645 11.388L38.9361 11.0011L38.9385 10.6669L38.9409 10.3327L38.8654 10.1782L38.7898 10.0238L38.6873 9.92542L38.5849 9.82705L38.4166 9.7418L38.2484 9.65655L37.9977 9.60078L37.7469 9.54501L37.4017 9.51874L37.0565 9.49247L36.6119 9.51999C36.3673 9.53512 36.0231 9.56499 35.847 9.58638L35.5268 9.62527L35.3086 9.62609L35.0904 9.62692L35.0586 9.78034C35.0412 9.86473 34.9927 10.0652 34.9508 10.2259C34.909 10.3865 34.8786 10.5218 34.8833 10.5266C34.8881 10.5313 35.0048 10.5048 35.1427 10.4677C35.2806 10.4306 35.5735 10.3695 35.7936 10.3321L36.1939 10.2639L36.5541 10.2491L36.9143 10.2342L37.1463 10.2749L37.3783 10.3155L37.5332 10.392L37.6881 10.4684L37.7748 10.5977L37.8615 10.7269L37.8603 10.9307L37.8591 11.1345L37.8131 11.3581L37.7671 11.5817L36.8071 11.5852L35.847 11.5886L35.5328 11.6748C35.36 11.7222 35.1686 11.7851 35.1075 11.8146C35.0465 11.8441 34.9854 11.8682 34.9718 11.8682C34.9582 11.8682 34.8554 11.9252 34.7433 11.9949L34.5396 12.1216L34.3791 12.2817C34.2909 12.3698 34.1781 12.5019 34.1286 12.5753C34.079 12.6487 33.9985 12.802 33.9496 12.9159L33.8608 13.1232L33.8201 13.3562L33.7793 13.5892V13.8337V14.0781L33.8182 14.2817L33.8572 14.4852L33.9294 14.618C33.9692 14.691 34.0421 14.7979 34.0915 14.8556L34.1813 14.9606L34.3409 15.0575L34.5005 15.1545L34.6832 15.2061C34.7836 15.2346 34.9365 15.269 35.023 15.2826L35.1801 15.3074L35.5403 15.2971L35.5401 15.2971ZM35.8737 14.551L35.6602 14.5621L35.5188 14.5261C35.4411 14.5063 35.3231 14.4622 35.2566 14.428L35.1358 14.3659L35.0699 14.2875C35.0336 14.2444 34.9782 14.1597 34.9468 14.0993L34.8896 13.9895L34.8784 13.733L34.8672 13.4765L34.9124 13.3209C34.9373 13.2353 34.9956 13.0868 35.0421 12.9909L35.1266 12.8165L35.2883 12.6559L35.4501 12.4953L35.6218 12.4126L35.7936 12.3298L36.0071 12.2791L36.2205 12.2284H36.8876H37.5546L37.5968 12.2459L37.639 12.2633L37.6035 12.4727C37.584 12.5878 37.5374 12.7961 37.5 12.9355C37.4626 13.0749 37.3965 13.2799 37.3532 13.3909C37.3099 13.502 37.2745 13.6002 37.2745 13.6092C37.2745 13.6181 37.2306 13.699 37.177 13.789L37.0796 13.9526L36.9196 14.1111C36.8316 14.1983 36.7499 14.2696 36.738 14.2696C36.7262 14.2696 36.6723 14.2997 36.6182 14.3364L36.5198 14.4031L36.3035 14.4715L36.0871 14.5399L35.8737 14.551ZM44.5587 15.3067L44.8122 15.3098L45.0523 15.2709C45.1844 15.2494 45.3525 15.2149 45.4259 15.1941C45.4992 15.1734 45.6313 15.1195 45.7194 15.0744L45.8795 14.9923L46.0172 14.8711L46.1549 14.7499L46.2999 14.5564C46.3797 14.4501 46.452 14.345 46.4605 14.323L46.476 14.283L46.4625 14.4164C46.4551 14.4898 46.4385 14.6098 46.4256 14.6832C46.4127 14.7566 46.3942 14.8977 46.3845 14.9967L46.3669 15.1768H46.8903H47.4137V14.9967V14.8166L47.4934 14.1362C47.5373 13.762 47.6021 13.2637 47.6376 13.0289C47.673 12.7941 47.7276 12.4579 47.759 12.2818C47.7904 12.1057 47.846 11.7875 47.8826 11.5747C47.9191 11.3619 47.9851 10.9897 48.0293 10.7476C48.0734 10.5054 48.1441 10.1212 48.1863 9.89375C48.2285 9.66629 48.2941 9.31208 48.3321 9.10663C48.3701 8.90118 48.4381 8.54097 48.4833 8.30617C48.5285 8.07136 48.5945 7.74117 48.63 7.57241C48.6655 7.40364 48.6944 7.25656 48.6944 7.24555V7.22554H48.1233H47.5523L47.5354 7.3923C47.5261 7.48402 47.4824 7.7872 47.4383 8.06603C47.3941 8.34486 47.3221 8.78911 47.2783 9.05327C47.2345 9.31742 47.1923 9.57357 47.1844 9.62249L47.1702 9.71144L47.1252 9.69227C47.1004 9.68173 46.966 9.64447 46.8266 9.60946L46.5731 9.54581L46.2263 9.5188L45.8794 9.49179L45.5859 9.51913L45.2924 9.54648L45.0256 9.61393L44.7588 9.68137L44.5053 9.805L44.2518 9.92863L44.065 10.0669L43.8783 10.2052L43.7169 10.3781C43.6282 10.4733 43.5001 10.6306 43.4321 10.7278L43.3086 10.9044L43.1636 11.2062C43.0838 11.3722 42.9868 11.5921 42.9479 11.6948C42.909 11.7975 42.8405 12.0252 42.7955 12.2008L42.7139 12.5201L42.6736 12.9346L42.6334 13.3491L42.6636 13.6826L42.6938 14.0161L42.7295 14.1362C42.7492 14.2023 42.7906 14.3199 42.8216 14.3977L42.8779 14.5391L42.9806 14.6781L43.0834 14.8172L43.2006 14.9132L43.3179 15.0093L43.478 15.0888C43.5661 15.1325 43.7138 15.189 43.8063 15.2143C43.8987 15.2397 44.0488 15.2701 44.1398 15.2819C44.2307 15.2938 44.4192 15.3049 44.5586 15.3067H44.5587ZM45.0136 14.5496L44.8122 14.5603L44.6762 14.5359C44.6014 14.5224 44.4817 14.4863 44.4102 14.4557L44.2803 14.4L44.1709 14.3103L44.0616 14.2207L43.9803 14.0651L43.899 13.9094L43.862 13.736L43.8249 13.5625L43.8281 13.2157L43.8312 12.8688L43.8742 12.562L43.9172 12.2551L43.9841 12.0417C44.0209 11.9243 44.0511 11.8135 44.0513 11.7955C44.0516 11.7775 44.0879 11.6815 44.132 11.5821C44.1762 11.4826 44.2499 11.3293 44.2959 11.2412C44.3419 11.1532 44.4279 11.0159 44.487 10.9362C44.5461 10.8564 44.6514 10.7364 44.7209 10.6693C44.7905 10.6023 44.9012 10.5144 44.9669 10.474L45.0863 10.4005L45.2961 10.3279L45.5059 10.2553L45.9462 10.255H46.3864L46.6399 10.3253C46.7793 10.364 46.9273 10.4088 46.9688 10.425L47.0443 10.4543L47.0296 10.5276C47.0215 10.5679 46.9898 10.7449 46.9591 10.921C46.9285 11.0971 46.8681 11.4333 46.8249 11.6681C46.7817 11.9029 46.7154 12.2571 46.6775 12.4552C46.6396 12.6534 46.5847 12.9055 46.5555 13.0156C46.5263 13.1256 46.4851 13.2781 46.464 13.3543C46.4428 13.4306 46.3925 13.5627 46.3521 13.6478C46.3117 13.733 46.241 13.8567 46.195 13.9228C46.149 13.9888 46.0712 14.0803 46.0221 14.126C45.973 14.1718 45.8668 14.2531 45.7861 14.3068L45.6393 14.4043L45.4272 14.4716L45.2151 14.5389L45.0136 14.5496ZM5.74412 15.1768H6.39243L6.43894 14.89C6.46452 14.7322 6.51449 14.429 6.54997 14.2163C6.58546 14.0035 6.6515 13.6072 6.69674 13.3357C6.74197 13.0643 6.80979 12.662 6.84743 12.4419C6.88508 12.2218 6.94489 11.8803 6.98035 11.6831C7.01581 11.4859 7.05155 11.3178 7.05978 11.3095L7.07473 11.2946H8.81796H10.5612L10.5806 11.3139L10.5999 11.3333L10.5697 11.4873C10.5531 11.5721 10.5039 11.8335 10.4604 12.0683C10.4169 12.3032 10.3438 12.6994 10.298 12.9489C10.2521 13.1983 10.1858 13.5525 10.1506 13.736C10.1154 13.9194 10.0442 14.3036 9.99237 14.5898C9.94053 14.876 9.89822 15.1251 9.89836 15.1435L9.89862 15.1768H10.5496H11.2006L11.2294 15.0101C11.2452 14.9183 11.2707 14.7532 11.286 14.6432C11.3013 14.5331 11.3382 14.299 11.368 14.1229C11.3978 13.9468 11.4574 13.5986 11.5004 13.3491C11.5433 13.0996 11.6153 12.6734 11.6602 12.4019C11.7052 12.1304 11.7718 11.7342 11.8084 11.5214C11.8449 11.3086 11.91 10.9484 11.9531 10.7209C11.9961 10.4934 12.0678 10.1092 12.1124 9.86707C12.157 9.62493 12.2238 9.25872 12.2609 9.05327C12.2979 8.84781 12.3655 8.4756 12.411 8.22612C12.4565 7.97664 12.514 7.68547 12.5387 7.57908L12.5837 7.38563H11.9246H11.2655L11.2475 7.51237C11.2377 7.58208 11.2058 7.77719 11.1768 7.94596C11.1477 8.11472 11.0949 8.4149 11.0593 8.61301C11.0238 8.81113 10.9588 9.18935 10.915 9.4535C10.8711 9.71765 10.8152 10.0673 10.7908 10.2306L10.7463 10.5273L9.77879 10.5469L8.81123 10.5665L8.00081 10.5473C7.55507 10.5367 7.18791 10.5259 7.18489 10.5234C7.18187 10.5208 7.19706 10.4171 7.21863 10.2929C7.2402 10.1688 7.28102 9.95312 7.30933 9.81371C7.33764 9.67429 7.39132 9.39813 7.4286 9.20002C7.46588 9.0019 7.50812 8.75576 7.52245 8.65303C7.53679 8.55031 7.56683 8.37921 7.58921 8.27281C7.61159 8.16642 7.65407 7.94231 7.6836 7.77479C7.71314 7.60727 7.74461 7.45118 7.75353 7.42792L7.76976 7.38563H7.11596H6.46217L6.42029 7.6191C6.39726 7.74751 6.36655 7.93062 6.35205 8.026C6.33755 8.12139 6.28885 8.42757 6.24383 8.7064C6.19882 8.98523 6.13236 9.39947 6.09615 9.62693C6.05995 9.8544 5.99401 10.2686 5.94963 10.5475C5.90525 10.8263 5.83202 11.2585 5.7869 11.508C5.74178 11.7575 5.67646 12.1117 5.64174 12.2951C5.60702 12.4786 5.54085 12.8268 5.4947 13.0689C5.44856 13.3111 5.38123 13.6533 5.3451 13.8294C5.30896 14.0055 5.26901 14.2096 5.25632 14.283C5.24363 14.3563 5.20233 14.568 5.16454 14.7533C5.12675 14.9385 5.09584 15.1096 5.09584 15.1335V15.1768H5.74412ZM12.9211 15.1768H13.495L13.5112 15.1346C13.5201 15.1114 13.5274 15.0505 13.5274 14.9993C13.5274 14.9481 13.5635 14.6819 13.6076 14.4078C13.6517 14.1337 13.7246 13.6873 13.7695 13.4158C13.8145 13.1443 13.8809 12.7481 13.9171 12.5353C13.9533 12.3225 14.0177 11.9683 14.0602 11.7482C14.1026 11.528 14.1679 11.1858 14.2051 10.9877C14.2423 10.7896 14.3155 10.4127 14.3678 10.1501C14.42 9.88756 14.4693 9.6622 14.4772 9.64931L14.4917 9.62588L13.9113 9.63308L13.331 9.64027L13.2826 9.98714C13.256 10.1779 13.1979 10.5561 13.1535 10.8276C13.109 11.0991 13.0418 11.5134 13.004 11.7482C12.9663 11.983 12.9005 12.3612 12.8578 12.5886C12.8151 12.8161 12.7497 13.1643 12.7124 13.3624C12.6752 13.5605 12.6083 13.9087 12.5638 14.1362C12.5194 14.3637 12.4597 14.6639 12.4312 14.8033C12.4028 14.9427 12.3722 15.0838 12.3633 15.1168L12.3471 15.1768H12.9211ZM26.3441 15.1768H26.9138L26.9309 14.9358C26.9403 14.8032 26.9726 14.536 27.0026 14.3421C27.0326 14.1481 27.094 13.7613 27.139 13.4825C27.1841 13.2037 27.2678 12.7396 27.3251 12.4512C27.3824 12.1628 27.4472 11.8761 27.4691 11.8141C27.4909 11.7521 27.5088 11.685 27.5088 11.6649C27.5088 11.6448 27.5516 11.5352 27.604 11.4214C27.6563 11.3076 27.7539 11.1334 27.8208 11.0342L27.9424 10.8539L28.1052 10.7032L28.268 10.5524L28.4687 10.4566L28.6695 10.3607L28.9763 10.3623L29.2832 10.3639L29.434 10.409C29.517 10.4338 29.592 10.4541 29.6008 10.4541C29.6095 10.4541 29.6167 10.4257 29.6167 10.391C29.6167 10.3564 29.6467 10.1806 29.6834 10.0005C29.7201 9.82033 29.7501 9.66534 29.7501 9.65605C29.7501 9.64677 29.6631 9.61269 29.5567 9.58034C29.4503 9.54799 29.3032 9.5141 29.2298 9.50504L29.0964 9.48857L28.923 9.51924C28.8276 9.53611 28.6857 9.57336 28.6078 9.60201C28.5298 9.63066 28.4011 9.69564 28.3217 9.74642C28.2423 9.79719 28.1189 9.89614 28.0473 9.96629C27.9758 10.0364 27.8555 10.1779 27.78 10.2806C27.7044 10.3834 27.6255 10.4914 27.6044 10.5208L27.5662 10.5741L27.5894 10.4674C27.6022 10.4087 27.6377 10.2166 27.6684 10.0405C27.6991 9.86438 27.7306 9.69929 27.7384 9.67361L27.7525 9.62691H27.2438H26.735V9.69123C26.735 9.72661 26.705 9.93973 26.6683 10.1648C26.6316 10.39 26.5711 10.7662 26.5338 11.001C26.4965 11.2358 26.4304 11.6441 26.3868 11.9082C26.3433 12.1724 26.2771 12.5506 26.2398 12.7487C26.2025 12.9468 26.1363 13.295 26.0927 13.5225C26.049 13.75 25.9766 14.1222 25.9317 14.3497C25.8867 14.5771 25.833 14.8457 25.8122 14.9466C25.7915 15.0475 25.7745 15.1405 25.7745 15.1534V15.1768L26.3441 15.1768ZM39.8672 15.1768H40.4496V14.9986V14.8203L40.5168 14.3782C40.5537 14.135 40.6146 13.75 40.6521 13.5225C40.6896 13.2951 40.7364 13.0069 40.756 12.8822C40.7757 12.7574 40.8277 12.4873 40.8717 12.2818C40.9157 12.0764 40.9706 11.8542 40.9938 11.7882C41.0169 11.7221 41.036 11.6529 41.0363 11.6342C41.0365 11.6156 41.0861 11.4957 41.1466 11.3678L41.2565 11.1353L41.4016 10.9425L41.5467 10.7498L41.7054 10.6305C41.7927 10.5648 41.9331 10.4777 42.0174 10.4369L42.1706 10.3627L42.5042 10.365L42.8377 10.3673L42.969 10.4095L43.1003 10.4516L43.1224 10.4379L43.1445 10.4243L43.1457 10.3391C43.1463 10.2923 43.1748 10.1181 43.2091 9.95192L43.2715 9.64985L43.2013 9.62239C43.1628 9.60729 43.0712 9.57603 42.9978 9.55292L42.8644 9.51091L42.6242 9.51153L42.3841 9.51214L42.1884 9.58099L41.9927 9.64984L41.8458 9.73845L41.6988 9.82706L41.5078 10.0272L41.3167 10.2273L41.2141 10.3825C41.1576 10.4679 41.1079 10.5339 41.1036 10.5293C41.0993 10.5246 41.13 10.3467 41.1718 10.1339C41.2136 9.92111 41.2483 9.71999 41.249 9.68698L41.2501 9.62694H40.7565H40.2629V9.64394C40.2629 9.65329 40.2383 9.82439 40.2082 10.0242C40.1781 10.2239 40.1177 10.6095 40.074 10.881C40.0303 11.1525 39.9585 11.5907 39.9145 11.8549C39.8706 12.1191 39.8043 12.4973 39.7672 12.6954C39.7302 12.8935 39.6644 13.2417 39.621 13.4692C39.5776 13.6966 39.5064 14.0628 39.4626 14.283C39.4189 14.5031 39.361 14.7943 39.3339 14.93L39.2847 15.1768L39.8672 15.1768ZM14.0496 8.66579L14.2116 8.66638L14.3404 8.6225L14.4692 8.57862L14.5831 8.46301L14.6971 8.3474L14.7571 8.19337L14.8172 8.03935L14.8193 7.81255L14.8215 7.58575L14.7681 7.49719L14.7147 7.40863L14.6218 7.35111L14.5289 7.29358H14.3283L14.1277 7.29358L13.9912 7.35472L13.8546 7.41586L13.7753 7.50081L13.696 7.58575L13.6338 7.7325L13.5715 7.87925L13.5598 8.10784L13.548 8.33644L13.606 8.45005L13.6639 8.56366L13.7757 8.61443L13.8876 8.6652L14.0496 8.66579Z" fill="#B3131B"/>
</g>
<defs>
<clipPath id="clip0_783_439">
<rect width="52.8039" height="23" fill="white" transform="translate(0.429688 0.374756)"/>
</clipPath>
</defs>
</svg>
