<svg width="25" height="25" viewBox="0 0 25 25" fill="none" xmlns="http://www.w3.org/2000/svg">
<g id="instagram">
<path id="Vector" d="M12.598 7.1094C9.6168 7.1094 7.21211 9.51409 7.21211 12.4953C7.21211 15.4766 9.6168 17.8813 12.598 17.8813C15.5793 17.8813 17.984 15.4766 17.984 12.4953C17.984 9.51409 15.5793 7.1094 12.598 7.1094ZM12.598 15.9969C10.6715 15.9969 9.09648 14.4266 9.09648 12.4953C9.09648 10.5641 10.6668 8.99377 12.598 8.99377C14.5293 8.99377 16.0996 10.5641 16.0996 12.4953C16.0996 14.4266 14.5246 15.9969 12.598 15.9969ZM19.4605 6.88909C19.4605 7.58752 18.898 8.14534 18.2043 8.14534C17.5059 8.14534 16.948 7.58284 16.948 6.88909C16.948 6.19534 17.5105 5.63284 18.2043 5.63284C18.898 5.63284 19.4605 6.19534 19.4605 6.88909ZM23.0277 8.16409C22.948 6.48127 22.5637 4.99065 21.3309 3.76252C20.1027 2.5344 18.6121 2.15002 16.9293 2.06565C15.1949 1.96721 9.99648 1.96721 8.26211 2.06565C6.58398 2.14534 5.09336 2.52971 3.86055 3.75784C2.62773 4.98596 2.24805 6.47659 2.16367 8.1594C2.06523 9.89377 2.06523 15.0922 2.16367 16.8266C2.24336 18.5094 2.62773 20 3.86055 21.2281C5.09336 22.4563 6.5793 22.8406 8.26211 22.925C9.99648 23.0235 15.1949 23.0235 16.9293 22.925C18.6121 22.8453 20.1027 22.461 21.3309 21.2281C22.559 20 22.9434 18.5094 23.0277 16.8266C23.1262 15.0922 23.1262 9.89846 23.0277 8.16409ZM20.7871 18.6875C20.4215 19.6063 19.7137 20.3141 18.7902 20.6844C17.4074 21.2328 14.1262 21.1063 12.598 21.1063C11.0699 21.1063 7.78398 21.2281 6.40586 20.6844C5.48711 20.3188 4.7793 19.611 4.40898 18.6875C3.86055 17.3047 3.98711 14.0235 3.98711 12.4953C3.98711 10.9672 3.86523 7.68127 4.40898 6.30315C4.77461 5.3844 5.48242 4.67659 6.40586 4.30627C7.78867 3.75784 11.0699 3.8844 12.598 3.8844C14.1262 3.8844 17.4121 3.76252 18.7902 4.30627C19.709 4.6719 20.4168 5.37971 20.7871 6.30315C21.3355 7.68596 21.209 10.9672 21.209 12.4953C21.209 14.0235 21.3355 17.3094 20.7871 18.6875Z" fill="white"/>
</g>
</svg>
