<svg width="25" height="25" viewBox="0 0 25 25" fill="none" xmlns="http://www.w3.org/2000/svg">
<g id="location_on">
<mask id="mask0_783_361" style="mask-type:alpha" maskUnits="userSpaceOnUse" x="0" y="0" width="25" height="25">
<rect id="Bounding box" x="0.711914" y="0.36499" width="24" height="24" fill="#D9D9D9"/>
</mask>
<g mask="url(#mask0_783_361)">
<path id="location_on_2" d="M12.7119 12.365C13.2619 12.365 13.7327 12.1692 14.1244 11.7775C14.5161 11.3858 14.7119 10.915 14.7119 10.365C14.7119 9.81499 14.5161 9.34416 14.1244 8.95249C13.7327 8.56082 13.2619 8.36499 12.7119 8.36499C12.1619 8.36499 11.6911 8.56082 11.2994 8.95249C10.9077 9.34416 10.7119 9.81499 10.7119 10.365C10.7119 10.915 10.9077 11.3858 11.2994 11.7775C11.6911 12.1692 12.1619 12.365 12.7119 12.365ZM12.7119 19.715C14.7452 17.8483 16.2536 16.1525 17.2369 14.6275C18.2202 13.1025 18.7119 11.7483 18.7119 10.565C18.7119 8.74832 18.1327 7.26082 16.9744 6.10249C15.8161 4.94416 14.3952 4.36499 12.7119 4.36499C11.0286 4.36499 9.60775 4.94416 8.44941 6.10249C7.29108 7.26082 6.71191 8.74832 6.71191 10.565C6.71191 11.7483 7.20358 13.1025 8.18691 14.6275C9.17025 16.1525 10.6786 17.8483 12.7119 19.715ZM12.7119 22.365C10.0286 20.0817 8.02441 17.9608 6.69941 16.0025C5.37441 14.0442 4.71191 12.2317 4.71191 10.565C4.71191 8.06499 5.51608 6.07332 7.12441 4.58999C8.73275 3.10666 10.5952 2.36499 12.7119 2.36499C14.8286 2.36499 16.6911 3.10666 18.2994 4.58999C19.9077 6.07332 20.7119 8.06499 20.7119 10.565C20.7119 12.2317 20.0494 14.0442 18.7244 16.0025C17.3994 17.9608 15.3952 20.0817 12.7119 22.365Z" fill="white"/>
</g>
</g>
</svg>
