<svg width="25" height="25" viewBox="0 0 25 25" fill="none" xmlns="http://www.w3.org/2000/svg">
<g id="mail">
<mask id="mask0_783_371" style="mask-type:alpha" maskUnits="userSpaceOnUse" x="0" y="0" width="25" height="25">
<rect id="Bounding box" x="0.711914" y="0.36499" width="24" height="24" fill="#D9D9D9"/>
</mask>
<g mask="url(#mask0_783_371)">
<path id="mail_2" d="M4.71191 20.365C4.16191 20.365 3.69108 20.1692 3.29941 19.7775C2.90775 19.3858 2.71191 18.915 2.71191 18.365V6.36499C2.71191 5.81499 2.90775 5.34416 3.29941 4.95249C3.69108 4.56082 4.16191 4.36499 4.71191 4.36499H20.7119C21.2619 4.36499 21.7327 4.56082 22.1244 4.95249C22.5161 5.34416 22.7119 5.81499 22.7119 6.36499V18.365C22.7119 18.915 22.5161 19.3858 22.1244 19.7775C21.7327 20.1692 21.2619 20.365 20.7119 20.365H4.71191ZM12.7119 13.365L4.71191 8.36499V18.365H20.7119V8.36499L12.7119 13.365ZM12.7119 11.365L20.7119 6.36499H4.71191L12.7119 11.365ZM4.71191 8.36499V6.36499V18.365V8.36499Z" fill="white"/>
</g>
</g>
</svg>
