<svg width="39" height="31" viewBox="0 0 39 31" fill="none" xmlns="http://www.w3.org/2000/svg">
<g id="MasterCard logo" clip-path="url(#clip0_783_420)">
<path id="Vector" d="M38.1154 30.4679V30.545H38.1874C38.2009 30.5452 38.2142 30.5418 38.2259 30.5352C38.2306 30.5319 38.2344 30.5274 38.2369 30.5223C38.2394 30.5171 38.2406 30.5114 38.2404 30.5057C38.2406 30.5001 38.2394 30.4945 38.2369 30.4894C38.2344 30.4844 38.2306 30.4801 38.2259 30.477C38.2143 30.47 38.2009 30.4666 38.1874 30.4671H38.1154V30.4679ZM38.1881 30.4133C38.219 30.4114 38.2495 30.4203 38.2745 30.4384C38.2845 30.4466 38.2925 30.4571 38.2978 30.4689C38.303 30.4808 38.3054 30.4937 38.3048 30.5067C38.3052 30.5178 38.3033 30.5289 38.2991 30.5393C38.2949 30.5496 38.2886 30.5589 38.2805 30.5666C38.2612 30.5834 38.237 30.5935 38.2115 30.5953L38.3079 30.7052H38.2336L38.1449 30.5961H38.1162V30.7052H38.0541V30.4135H38.1891L38.1881 30.4133ZM38.1689 30.8059C38.2014 30.8062 38.2337 30.7996 38.2635 30.7866C38.2923 30.7742 38.3185 30.7565 38.3406 30.7344C38.3629 30.7123 38.3806 30.6861 38.3929 30.6572C38.4182 30.5961 38.4182 30.5275 38.3929 30.4664C38.3804 30.4376 38.3627 30.4115 38.3406 30.3892C38.3185 30.3671 38.2923 30.3494 38.2635 30.337C38.2335 30.3247 38.2013 30.3185 38.1689 30.3189C38.1358 30.3186 38.1031 30.3247 38.0725 30.337C38.043 30.3491 38.0163 30.3669 37.9936 30.3892C37.9595 30.4242 37.9364 30.4685 37.9273 30.5165C37.9181 30.5645 37.9233 30.6141 37.9421 30.6592C37.9539 30.6881 37.9714 30.7143 37.9936 30.7363C38.0163 30.7586 38.043 30.7764 38.0725 30.7885C38.1029 30.8015 38.1357 30.8081 38.1689 30.8078M38.1689 30.2487C38.2536 30.2486 38.335 30.2818 38.3954 30.3412C38.4245 30.3698 38.4477 30.4038 38.4636 30.4413C38.4801 30.4798 38.4886 30.5213 38.4886 30.5632C38.4886 30.6052 38.4801 30.6467 38.4636 30.6852C38.4474 30.7225 38.4242 30.7565 38.3954 30.7853C38.3658 30.8136 38.3314 30.8365 38.2938 30.8527C38.2543 30.8695 38.2118 30.8781 38.1689 30.8778C38.1254 30.8781 38.0824 30.8696 38.0424 30.8527C38.0043 30.8369 37.9696 30.814 37.94 30.7853C37.9112 30.7554 37.8883 30.7203 37.8727 30.6819C37.8562 30.6434 37.8477 30.6019 37.8477 30.56C37.8477 30.5181 37.8562 30.4766 37.8727 30.438C37.8886 30.4005 37.9118 30.3665 37.941 30.338C37.9702 30.3088 38.005 30.2858 38.0433 30.2705C38.0834 30.2536 38.1264 30.2451 38.1698 30.2454M8.647 29.1221C8.647 28.5659 9.0114 28.109 9.60696 28.109C10.1761 28.109 10.5602 28.5462 10.5602 29.1221C10.5602 29.698 10.1761 30.1353 9.60696 30.1353C9.0114 30.1353 8.647 29.6784 8.647 29.1221ZM11.209 29.1221V27.5392H10.5208V27.9248C10.3026 27.6399 9.97155 27.4612 9.52136 27.4612C8.63447 27.4612 7.93845 28.1568 7.93845 29.1229C7.93845 30.0891 8.63408 30.7847 9.52136 30.7847C9.97136 30.7847 10.3026 30.6058 10.5208 30.321V30.7052H11.2082V29.1221H11.209ZM34.4593 29.1221C34.4593 28.5659 34.8237 28.109 35.4195 28.109C35.9892 28.109 36.3727 28.5462 36.3727 29.1221C36.3727 29.698 35.9892 30.1353 35.4195 30.1353C34.8239 30.1353 34.4593 29.6784 34.4593 29.1221ZM37.0221 29.1221V26.2687H36.3334V27.9248C36.1151 27.6399 35.7841 27.4612 35.3339 27.4612C34.447 27.4612 33.751 28.1568 33.751 29.1229C33.751 30.0891 34.4466 30.7847 35.3339 30.7847C35.7841 30.7847 36.1151 30.6058 36.3334 30.321V30.7052H37.0221V29.1221ZM19.7493 28.0764C20.1928 28.0764 20.4775 28.3544 20.5502 28.8439H18.9083C18.9818 28.387 19.2592 28.0764 19.7495 28.0764M19.7632 27.4594C18.8358 27.4594 18.187 28.1342 18.187 29.1212C18.187 30.1274 18.8618 30.7829 19.8093 30.7829C20.2859 30.7829 20.7224 30.664 21.1064 30.3395L20.7692 29.8295C20.5039 30.0416 20.1662 30.1606 19.8486 30.1606C19.4052 30.1606 19.0014 29.9552 18.9021 29.3855H21.2518C21.2586 29.2999 21.2655 29.2135 21.2655 29.121C21.2586 28.1344 20.6485 27.4592 19.7628 27.4592M28.0707 29.121C28.0707 28.5648 28.435 28.1078 29.0306 28.1078C29.5998 28.1078 29.9838 28.5451 29.9838 29.121C29.9838 29.6969 29.5998 30.1342 29.0306 30.1342C28.435 30.1342 28.0705 29.6772 28.0705 29.121M30.6324 29.121V27.5392H29.9447V27.9248C29.7257 27.6399 29.3954 27.4612 28.9452 27.4612C28.0583 27.4612 27.3623 28.1568 27.3623 29.1229C27.3623 30.0891 28.0579 30.7847 28.9452 30.7847C29.3954 30.7847 29.7257 30.6058 29.9447 30.321V30.7052H30.6326V29.1221L30.6324 29.121ZM24.1847 29.121C24.1847 30.081 24.853 30.7828 25.8729 30.7828C26.3495 30.7828 26.6671 30.6767 27.0104 30.4054L26.68 29.8492C26.4216 30.0349 26.1503 30.1342 25.8509 30.1342C25.3016 30.1274 24.8977 29.7302 24.8977 29.121C24.8977 28.5117 25.3016 28.1148 25.8509 28.1078C26.1496 28.1078 26.4208 28.2071 26.68 28.3928L27.0104 27.8365C26.6665 27.5653 26.3489 27.4592 25.8729 27.4592C24.853 27.4592 24.1847 28.1608 24.1847 29.121ZM33.0555 27.4592C32.6586 27.4592 32.4 27.6449 32.2213 27.9229V27.5392H31.5394V30.7035H32.2282V28.9297C32.2282 28.4061 32.4532 28.1151 32.903 28.1151C33.0503 28.113 33.1966 28.1401 33.3334 28.1948L33.5455 27.5462C33.3931 27.4862 33.1946 27.4598 33.0552 27.4598M14.6109 27.7909C14.2799 27.5726 13.8237 27.4598 13.3205 27.4598C12.5189 27.4598 12.0027 27.8441 12.0027 28.4728C12.0027 28.9887 12.387 29.307 13.0946 29.4063L13.4196 29.4526C13.7969 29.5056 13.9751 29.6049 13.9751 29.7837C13.9751 30.0283 13.7244 30.1679 13.2538 30.1679C12.7772 30.1679 12.4332 30.0156 12.2013 29.8369L11.878 30.3734C12.2553 30.6515 12.7319 30.7841 13.248 30.7841C14.1619 30.7841 14.6915 30.3538 14.6915 29.7513C14.6915 29.195 14.2747 28.9041 13.586 28.8048L13.2617 28.7578C12.9638 28.7192 12.7251 28.6592 12.7251 28.4471C12.7251 28.2158 12.9501 28.0766 13.3277 28.0766C13.7316 28.0766 14.1226 28.2289 14.3142 28.3479L14.6121 27.7916L14.6109 27.7909ZM23.4897 27.4604C23.0927 27.4604 22.8341 27.6461 22.6562 27.9241V27.5392H21.9742V30.7035H22.6624V28.9297C22.6624 28.4061 22.8874 28.1151 23.3372 28.1151C23.4845 28.113 23.6307 28.1401 23.7675 28.1948L23.9796 27.5462C23.8273 27.4862 23.6287 27.4598 23.4893 27.4598M17.6177 27.5392H16.4925V26.5793H15.7969V27.5392H15.155V28.1682H15.7969V29.6117C15.7969 30.3459 16.0818 30.7831 16.8958 30.7831C17.1945 30.7831 17.5385 30.6906 17.7567 30.5385L17.5579 29.9493C17.3526 30.0682 17.1276 30.1282 16.9487 30.1282C16.6047 30.1282 16.4925 29.9161 16.4925 29.5986V28.1687H17.6177V27.5392ZM7.32997 30.7043V28.7184C7.32997 27.9705 6.85336 27.4673 6.08505 27.4606C5.68113 27.4538 5.26448 27.5795 4.97277 28.0236C4.75452 27.6727 4.41056 27.4606 3.92701 27.4606C3.58903 27.4606 3.25876 27.5599 3.00021 27.9304V27.5392H2.31152V30.7035H3.00561V28.949C3.00561 28.3997 3.31024 28.1078 3.78068 28.1078C4.23762 28.1078 4.46879 28.4057 4.46879 28.9421V30.7031H5.16442V28.9486C5.16442 28.3993 5.48196 28.1074 5.93871 28.1074C6.40857 28.1074 6.6328 28.4053 6.6328 28.9417V30.7027L7.32997 30.7043Z" fill="#231F20"/>
<path id="Vector_2" d="M38.5072 20.1784V19.7157H38.3867L38.2473 20.0332L38.1087 19.7157H37.9878V20.1784H38.0734V19.8298L38.2038 20.1306H38.2925L38.4228 19.8291V20.1784H38.5076H38.5072ZM37.7428 20.1784V19.7949H37.897V19.7169H37.5029V19.7949H37.6572V20.1784H37.742H37.7428Z" fill="#F79410"/>
<path id="Vector_3" d="M24.8117 22.163H14.3838V3.42261H24.8119L24.8117 22.163Z" fill="#FF5F00"/>
<path id="Vector_4" d="M15.0445 12.7932C15.0445 8.99173 16.8245 5.60536 19.5962 3.42303C17.4982 1.76869 14.9032 0.870821 12.2314 0.874769C5.64967 0.874769 0.314453 6.21076 0.314453 12.7932C0.314453 19.3757 5.64967 24.7117 12.2314 24.7117C14.9032 24.7156 17.4983 23.8178 19.5964 22.1634C16.8249 19.9815 15.0445 16.5949 15.0445 12.7932Z" fill="#EB001B"/>
<path id="Vector_5" d="M38.8796 12.7932C38.8796 19.3757 33.5444 24.7117 26.9627 24.7117C24.2905 24.7156 21.6952 23.8177 19.5967 22.1634C22.3692 19.9811 24.1491 16.5949 24.1491 12.7932C24.1491 8.99154 22.3692 5.60536 19.5967 3.42303C21.6951 1.76874 24.2904 0.87089 26.9625 0.874768C33.5442 0.874768 38.8794 6.21076 38.8794 12.7932" fill="#F79E1B"/>
</g>
<defs>
<clipPath id="clip0_783_420">
<rect width="38.5604" height="30" fill="white" transform="translate(0.314453 0.874756)"/>
</clipPath>
</defs>
</svg>
