<svg width="20" height="21" viewBox="0 0 20 21" fill="none" xmlns="http://www.w3.org/2000/svg">
<g id="monetization_on">
<mask id="mask0_870_1055" style="mask-type:alpha" maskUnits="userSpaceOnUse" x="0" y="0" width="20" height="21">
<rect id="Bounding box" y="0.5" width="20" height="20" fill="#D9D9D9"/>
</mask>
<g mask="url(#mask0_870_1055)">
<path id="monetization_on_2" d="M9.24996 16.3333H10.7083V15.2916C11.4027 15.1666 12 14.8958 12.5 14.4791C13 14.0625 13.25 13.4444 13.25 12.625C13.25 12.0416 13.0833 11.5069 12.75 11.0208C12.4166 10.5347 11.75 10.1111 10.75 9.74996C9.91663 9.47218 9.34024 9.22913 9.02079 9.02079C8.70135 8.81246 8.54163 8.52774 8.54163 8.16663C8.54163 7.80551 8.6701 7.52079 8.92704 7.31246C9.18399 7.10413 9.55551 6.99996 10.0416 6.99996C10.4861 6.99996 10.8333 7.1076 11.0833 7.32288C11.3333 7.53815 11.5138 7.80551 11.625 8.12496L12.9583 7.58329C12.8055 7.09718 12.5243 6.67357 12.1145 6.31246C11.7048 5.95135 11.25 5.74996 10.75 5.70829V4.66663H9.29163V5.70829C8.59718 5.86107 8.05551 6.16663 7.66663 6.62496C7.27774 7.08329 7.08329 7.59718 7.08329 8.16663C7.08329 8.8194 7.27426 9.34718 7.65621 9.74996C8.03815 10.1527 8.63885 10.5 9.45829 10.7916C10.3333 11.1111 10.9409 11.3958 11.2812 11.6458C11.6215 11.8958 11.7916 12.2222 11.7916 12.625C11.7916 13.0833 11.6284 13.4201 11.302 13.6354C10.9757 13.8507 10.5833 13.9583 10.125 13.9583C9.66663 13.9583 9.26038 13.8159 8.90621 13.5312C8.55204 13.2465 8.29163 12.8194 8.12496 12.25L6.74996 12.7916C6.9444 13.4583 7.24649 13.9965 7.65621 14.4062C8.06593 14.8159 8.59718 15.0972 9.24996 15.25V16.3333ZM9.99996 18.8333C8.84718 18.8333 7.76385 18.6145 6.74996 18.177C5.73607 17.7395 4.85413 17.1458 4.10413 16.3958C3.35413 15.6458 2.76038 14.7638 2.32288 13.75C1.88538 12.7361 1.66663 11.6527 1.66663 10.5C1.66663 9.34718 1.88538 8.26385 2.32288 7.24996C2.76038 6.23607 3.35413 5.35413 4.10413 4.60413C4.85413 3.85413 5.73607 3.26038 6.74996 2.82288C7.76385 2.38538 8.84718 2.16663 9.99996 2.16663C11.1527 2.16663 12.2361 2.38538 13.25 2.82288C14.2638 3.26038 15.1458 3.85413 15.8958 4.60413C16.6458 5.35413 17.2395 6.23607 17.677 7.24996C18.1145 8.26385 18.3333 9.34718 18.3333 10.5C18.3333 11.6527 18.1145 12.7361 17.677 13.75C17.2395 14.7638 16.6458 15.6458 15.8958 16.3958C15.1458 17.1458 14.2638 17.7395 13.25 18.177C12.2361 18.6145 11.1527 18.8333 9.99996 18.8333ZM9.99996 17.1666C11.8611 17.1666 13.4375 16.5208 14.7291 15.2291C16.0208 13.9375 16.6666 12.3611 16.6666 10.5C16.6666 8.63885 16.0208 7.06246 14.7291 5.77079C13.4375 4.47913 11.8611 3.83329 9.99996 3.83329C8.13885 3.83329 6.56246 4.47913 5.27079 5.77079C3.97913 7.06246 3.33329 8.63885 3.33329 10.5C3.33329 12.3611 3.97913 13.9375 5.27079 15.2291C6.56246 16.5208 8.13885 17.1666 9.99996 17.1666Z" fill="#F76707"/>
</g>
</g>
</svg>
