<svg width="109" height="40" viewBox="0 0 109 40" fill="none" xmlns="http://www.w3.org/2000/svg">
<g id="pix logo" clip-path="url(#clip0_783_442)">
<path id="Vector" d="M44.9277 36.6848V14.6931C44.9277 12.7502 45.6995 10.8869 47.0734 9.51307C48.4472 8.13924 50.3105 7.36743 52.2534 7.36743L58.7459 7.37649C60.6837 7.38039 62.5408 8.153 63.9096 9.52474C65.2783 10.8965 66.0469 12.7553 66.0466 14.6931V19.3731C66.0466 21.3161 65.2748 23.1795 63.901 24.5535C62.5272 25.9275 60.6639 26.6996 58.7209 26.6999H49.5443" stroke="#939598" stroke-width="0.708679" stroke-linecap="round" stroke-linejoin="round"/>
<path id="Vector_2" d="M67.8613 7.36633H70.6779C71.4754 7.36633 72.2402 7.68312 72.8041 8.247C73.3679 8.81089 73.6847 9.57567 73.6847 10.3731V26.7995" stroke="#939598" stroke-width="0.708679" stroke-linecap="round" stroke-linejoin="round"/>
<path id="Vector_3" d="M73.0801 4.82144L71.8031 3.54333C71.7277 3.46805 71.668 3.37867 71.6272 3.28028C71.5864 3.18189 71.5654 3.07644 71.5654 2.96993C71.5654 2.86343 71.5864 2.75797 71.6272 2.65959C71.668 2.5612 71.7277 2.47181 71.8031 2.39654L73.0801 1.11956C73.2325 0.967262 73.4391 0.881714 73.6546 0.881714C73.8701 0.881714 74.0767 0.967262 74.2291 1.11956L75.505 2.39654C75.5803 2.47181 75.6401 2.5612 75.6809 2.65959C75.7216 2.75797 75.7426 2.86343 75.7426 2.96993C75.7426 3.07644 75.7216 3.18189 75.6809 3.28028C75.6401 3.37867 75.5803 3.46805 75.505 3.54333L74.2235 4.82144C74.1481 4.89682 74.0586 4.95661 73.9601 4.9974C73.8616 5.03819 73.7561 5.05919 73.6495 5.05919C73.5429 5.05919 73.4374 5.03819 73.3389 4.9974C73.2404 4.95661 73.1509 4.89682 73.0755 4.82144" fill="#32BCAD"/>
<path id="Vector_4" d="M79.0918 7.35169H81.8846C83.3212 7.35109 84.6993 7.92119 85.7156 8.93659L92.2488 15.4698C92.4499 15.6712 92.6888 15.8309 92.9517 15.9399C93.2146 16.0489 93.4964 16.105 93.781 16.105C94.0657 16.105 94.3475 16.0489 94.6104 15.9399C94.8733 15.8309 95.1122 15.6712 95.3133 15.4698L101.823 8.9615C102.326 8.45866 102.923 8.05986 103.58 7.78792C104.237 7.51597 104.941 7.3762 105.653 7.37659H107.923" stroke="#939598" stroke-width="0.708679" stroke-linecap="round" stroke-linejoin="round"/>
<path id="Vector_5" d="M79.0918 26.6557H81.8846C83.3212 26.6562 84.6992 26.0861 85.7156 25.0708L92.2488 18.5376C92.6553 18.1315 93.2064 17.9033 93.781 17.9033C94.3557 17.9033 94.9068 18.1315 95.3133 18.5376L101.823 25.047C102.839 26.0623 104.216 26.6324 105.653 26.6319H107.923" stroke="#939598" stroke-width="0.708679" stroke-linecap="round" stroke-linejoin="round"/>
<path id="Vector_6" d="M28.2767 30.8286C27.5876 30.8311 26.9049 30.697 26.2679 30.4341C25.631 30.1712 25.0525 29.7847 24.5658 29.2969L19.2054 23.9331C19.0158 23.7518 18.7636 23.6506 18.5012 23.6506C18.2389 23.6506 17.9867 23.7518 17.7971 23.9331L12.4186 29.3116C11.9322 29.8001 11.3538 30.1874 10.7168 30.4511C10.0799 30.7148 9.39701 30.8496 8.70764 30.8478H7.6582L14.4507 37.6403C15.4694 38.6569 16.8498 39.2278 18.289 39.2278C19.7281 39.2278 21.1085 38.6569 22.1273 37.6403L28.9333 30.8331L28.2767 30.8286Z" fill="#32BCAD"/>
<path id="Vector_7" d="M8.70877 11.8731C9.39815 11.8712 10.0811 12.006 10.718 12.2697C11.355 12.5334 11.9333 12.9207 12.4197 13.4093L17.7982 18.7889C17.9852 18.9753 18.2384 19.0799 18.5024 19.0799C18.7663 19.0799 19.0196 18.9753 19.2065 18.7889L24.5658 13.4297C25.0517 12.9405 25.63 12.5527 26.267 12.2888C26.9041 12.0249 27.5872 11.8901 28.2767 11.8923H28.922L22.1159 5.08627C21.612 4.58209 21.0136 4.18215 20.355 3.90928C19.6964 3.63642 18.9905 3.49597 18.2776 3.49597C17.5648 3.49597 16.8589 3.63642 16.2003 3.90928C15.5417 4.18215 14.9433 4.58209 14.4393 5.08627L7.6582 11.8731H8.70877Z" fill="#32BCAD"/>
<path id="Vector_8" d="M34.5516 17.5234L30.4388 13.4106C30.346 13.4485 30.2469 13.4685 30.1467 13.4694H28.2765C27.3033 13.4719 26.3704 13.8584 25.6807 14.5449L20.3214 19.9008C19.8388 20.3825 19.1847 20.6531 18.5027 20.6531C17.8208 20.6531 17.1667 20.3825 16.6841 19.9008L11.3044 14.5245C10.6149 13.8376 9.68194 13.4507 8.70859 13.4479H6.41274C6.31812 13.4458 6.22462 13.427 6.13651 13.3925L1.99764 17.5234C0.981075 18.5421 0.410156 19.9225 0.410156 21.3617C0.410156 22.8009 0.981075 24.1813 1.99764 25.2L6.12745 29.3298C6.21537 29.2946 6.30899 29.2758 6.40368 29.2743H8.70859C9.68192 29.2715 10.6148 28.8846 11.3044 28.1977L16.6829 22.8192C17.6554 21.8479 19.3501 21.8479 20.3214 22.8192L25.6807 28.1774C26.3704 28.8639 27.3033 29.2504 28.2765 29.2528H30.1467C30.2469 29.2535 30.3461 29.2735 30.4388 29.3117L34.5516 25.1989C35.0558 24.6949 35.4557 24.0965 35.7286 23.4379C36.0015 22.7793 36.1419 22.0734 36.1419 21.3606C36.1419 20.6477 36.0015 19.9418 35.7286 19.2832C35.4557 18.6246 35.0558 18.0263 34.5516 17.5223" fill="#32BCAD"/>
<path id="Vector_9" d="M50.5112 34.8157C50.1712 34.8306 49.8338 34.8819 49.5047 34.9686V36.3089C49.7564 36.3972 50.0214 36.4416 50.2881 36.4403C50.9606 36.4403 51.2787 36.2138 51.2787 35.6218C51.2787 35.0648 51.0183 34.8157 50.5112 34.8157ZM49.2783 37.3063V34.6538H49.4628L49.4821 34.767C49.825 34.6759 50.1762 34.6194 50.5304 34.5984C50.7758 34.5812 51.0194 34.6518 51.2176 34.7976C51.444 34.9855 51.521 35.2889 51.521 35.6195C51.521 35.9501 51.4078 36.292 51.0908 36.472C50.8489 36.5927 50.581 36.6521 50.3108 36.6452C50.0375 36.6434 49.766 36.6019 49.5047 36.5218V37.3018L49.2783 37.3063Z" fill="#939598"/>
<path id="Vector_10" d="M53.2077 34.8079C52.5364 34.8079 52.2364 35.0184 52.2364 35.6105C52.2364 36.1822 52.5319 36.4403 53.2077 36.4403C53.8836 36.4403 54.1756 36.232 54.1756 35.6411C54.1756 35.0694 53.8802 34.8079 53.2077 34.8079ZM54.0726 36.4403C53.8462 36.6011 53.5496 36.6475 53.2077 36.6475C52.8658 36.6475 52.559 36.5977 52.3406 36.4403C52.0949 36.2671 51.9941 35.9875 51.9941 35.6264C51.9941 35.2652 52.0949 34.9845 52.3406 34.8079C52.559 34.6505 52.859 34.6007 53.2077 34.6007C53.5564 34.6007 53.8496 34.6505 54.0726 34.8079C54.3217 34.9845 54.4179 35.272 54.4179 35.6218C54.4179 35.9717 54.3183 36.2671 54.0726 36.4403Z" fill="#939598"/>
<path id="Vector_11" d="M57.2538 36.5932L56.5044 34.9845H56.4897L55.7516 36.5932H55.5444L54.752 34.6539H55.001L55.6655 36.2819H55.6814L56.4037 34.6539H56.6108L57.3512 36.2819H57.367L58.0157 34.6539H58.2614L57.4621 36.5932H57.2538Z" fill="#939598"/>
<path id="Vector_12" d="M59.7052 34.8033C59.0826 34.8033 58.872 35.0806 58.8335 35.4825H60.5769C60.5577 35.041 60.3313 34.8033 59.7052 34.8033ZM59.6973 36.6474C59.3249 36.6474 59.0826 36.5931 58.8902 36.4323C58.6637 36.2365 58.5879 35.9523 58.5879 35.6263C58.5879 35.3002 58.6909 34.9844 58.949 34.7965C59.1748 34.6545 59.439 34.5861 59.7052 34.6006C59.9767 34.5842 60.2469 34.6497 60.4807 34.7885C60.7603 34.9765 60.8147 35.307 60.8147 35.6829H58.8279C58.8358 36.0825 58.966 36.4357 59.7188 36.4357C60.0554 36.4268 60.3906 36.389 60.7207 36.3225V36.5263C60.3852 36.5953 60.0443 36.6351 59.7018 36.6451" fill="#939598"/>
<path id="Vector_13" d="M61.4648 36.5932V34.654H61.6482L61.6675 34.7672C62.0784 34.663 62.2709 34.5985 62.632 34.5985H62.6592V34.8136H62.6048C62.3014 34.8136 62.1169 34.8555 61.6913 34.9664V36.591L61.4648 36.5932Z" fill="#939598"/>
<path id="Vector_14" d="M63.9748 34.8033C63.3533 34.8033 63.1416 35.0806 63.1031 35.4825H64.8465C64.8272 35.041 64.6008 34.8033 63.9748 34.8033ZM63.9669 36.6474C63.5944 36.6474 63.3533 36.5931 63.1608 36.4323C62.9344 36.2365 62.8574 35.9523 62.8574 35.6263C62.8574 35.3002 62.9616 34.9844 63.2186 34.7965C63.4444 34.6548 63.7085 34.5864 63.9748 34.6006C64.2463 34.5842 64.5164 34.6497 64.7503 34.7885C65.031 34.9765 65.0899 35.307 65.0899 35.6829H63.0952C63.1031 36.0825 63.2333 36.4357 63.9861 36.4357C64.3231 36.4269 64.6587 36.389 64.9891 36.3225V36.5263C64.6536 36.5952 64.3127 36.635 63.9703 36.6451" fill="#939598"/>
<path id="Vector_15" d="M67.567 34.9381C67.3152 34.8502 67.0503 34.8062 66.7836 34.8079C66.1112 34.8079 65.793 35.0343 65.793 35.6264C65.793 36.1867 66.0546 36.4324 66.5606 36.4324C66.9003 36.4166 67.2375 36.3662 67.567 36.2818V34.9381ZM67.61 36.5932L67.5897 36.4799C67.2469 36.5721 66.8956 36.629 66.5413 36.6498C66.2956 36.6683 66.0515 36.5971 65.8542 36.4494C65.6278 36.2615 65.5508 35.9581 65.5508 35.6286C65.5508 35.2822 65.664 34.9562 65.981 34.7796C66.2232 34.6561 66.4926 34.5953 66.7644 34.603C67.0363 34.6067 67.3063 34.6478 67.567 34.7252V33.8365H67.7934V36.5932H67.61Z" fill="#939598"/>
<path id="Vector_16" d="M71.1166 34.8158C70.7767 34.8307 70.4393 34.8819 70.1102 34.9686V36.3056C70.3613 36.3964 70.6266 36.442 70.8936 36.4403C71.5661 36.4403 71.8842 36.2139 71.8842 35.6218C71.8842 35.0648 71.6238 34.8158 71.1166 34.8158ZM71.6962 36.4743C71.4547 36.5949 71.1873 36.6544 70.9174 36.6475C70.622 36.6456 70.3288 36.5963 70.0491 36.5015L70.0378 36.5932H69.8838V33.8365H70.1102V34.7615C70.4462 34.6755 70.7897 34.6217 71.1359 34.6007C71.3813 34.5835 71.6249 34.6541 71.823 34.7999C72.0494 34.9879 72.1264 35.2913 72.1264 35.6218C72.1264 35.9524 72.0132 36.2943 71.6962 36.4743Z" fill="#939598"/>
<path id="Vector_17" d="M72.4269 37.3347V37.1241C72.5401 37.1354 72.642 37.1433 72.7145 37.1433C72.9952 37.1433 73.1673 37.0618 73.3213 36.7437L73.3948 36.5898L72.376 34.6505H72.6386L73.5069 36.3248H73.5216L74.3469 34.6505H74.605L73.5137 36.8286C73.3145 37.2237 73.0994 37.3539 72.7031 37.3539C72.6096 37.3534 72.5162 37.347 72.4235 37.3347" fill="#939598"/>
<path id="Vector_18" d="M77.7333 35.4872H76.9816V36.1664H77.7333C78.2518 36.1664 78.4476 36.1087 78.4476 35.8268C78.4476 35.5234 78.1782 35.4872 77.7287 35.4872M77.5929 34.3913H76.9793V35.0819H77.5974C78.108 35.0819 78.3118 35.0207 78.3118 34.7332C78.3118 34.4253 78.0536 34.3936 77.5929 34.3936M78.7612 36.4177C78.4838 36.5943 78.1499 36.6011 77.5397 36.6011H76.3906V33.9634H77.5125C78.0389 33.9634 78.3616 33.9702 78.6299 34.1321C78.719 34.1852 78.7915 34.2623 78.8391 34.3545C78.8868 34.4467 78.9076 34.5505 78.8993 34.6539C78.8993 34.9302 78.7861 35.1147 78.4838 35.2381V35.2528C78.8235 35.3298 79.0408 35.503 79.0408 35.8755C79.0493 35.9818 79.0276 36.0884 78.9781 36.183C78.9286 36.2775 78.8534 36.3561 78.7612 36.4098" fill="#939598"/>
<path id="Vector_19" d="M81.3381 35.7793C81.1117 35.76 80.8852 35.7487 80.6396 35.7487C80.2445 35.7487 80.1052 35.8291 80.1052 36.0102C80.1052 36.1913 80.2185 36.2706 80.5241 36.2706C80.7987 36.2616 81.0715 36.2236 81.3381 36.1574V35.7793ZM81.4513 36.5932L81.4366 36.48C81.0933 36.5768 80.74 36.6337 80.3837 36.6498C80.1779 36.6637 79.9728 36.6139 79.7962 36.5072C79.7203 36.4435 79.6614 36.362 79.6247 36.2699C79.588 36.1779 79.5747 36.0782 79.5859 35.9798C79.5971 35.8814 79.6325 35.7872 79.689 35.7058C79.7454 35.6244 79.8211 35.5582 79.9094 35.5132C80.1132 35.417 80.386 35.4091 80.6362 35.4091C80.8388 35.4091 81.1117 35.4204 81.3381 35.4362V35.4011C81.3381 35.0977 81.1388 34.9981 80.5932 34.9981C80.3826 34.9981 80.1245 35.0094 79.8788 35.0321V34.6404C80.1517 34.6177 80.4596 34.603 80.7132 34.603C81.0528 34.603 81.4003 34.6291 81.6188 34.783C81.8373 34.937 81.8837 35.16 81.8837 35.4476V36.5955L81.4513 36.5932Z" fill="#939598"/>
<path id="Vector_20" d="M84.4124 36.5933V35.5235C84.4124 35.1703 84.2324 35.0435 83.9098 35.0435C83.6419 35.0553 83.3762 35.0963 83.1173 35.1657V36.5944H82.5762V34.654H83.0177L83.0369 34.7774C83.3745 34.6781 83.7225 34.6188 84.0739 34.6008C84.3125 34.5817 84.5497 34.6528 84.7384 34.8001C84.8913 34.9382 84.949 35.1306 84.949 35.4069V36.5933H84.4124Z" fill="#939598"/>
<path id="Vector_21" d="M86.4793 36.6475C86.2291 36.6475 85.9562 36.6124 85.757 36.4437C85.5193 36.2513 85.4502 35.949 85.4502 35.6218C85.4502 35.315 85.5498 34.98 85.8453 34.792C86.0876 34.6347 86.3864 34.6007 86.6977 34.6007C86.9242 34.6007 87.1393 34.6154 87.377 34.6381V35.0535C87.1811 35.0343 86.9468 35.0196 86.7589 35.0196C86.2438 35.0196 86.0015 35.1803 86.0015 35.6264C86.0015 36.0441 86.1826 36.2252 86.6049 36.2252C86.8787 36.2163 87.1511 36.183 87.4189 36.1256V36.5241C87.109 36.5963 86.7927 36.6376 86.4747 36.6475" fill="#939598"/>
<path id="Vector_22" d="M89.0231 35.0071C88.508 35.0071 88.2816 35.169 88.2816 35.6105C88.2816 36.052 88.508 36.24 89.0231 36.24C89.5382 36.24 89.7567 36.0826 89.7567 35.6411C89.7567 35.1996 89.5382 35.0071 89.0231 35.0071ZM89.9525 36.4437C89.7148 36.6045 89.4035 36.6475 89.0231 36.6475C88.6427 36.6475 88.3246 36.6011 88.0903 36.4437C87.8208 36.2671 87.7246 35.975 87.7246 35.6264C87.7246 35.2777 87.8208 34.98 88.0903 34.8034C88.3246 34.646 88.6348 34.6007 89.0231 34.6007C89.4114 34.6007 89.7148 34.646 89.9525 34.8034C90.2208 34.98 90.3137 35.2766 90.3137 35.6218C90.3137 35.9671 90.2174 36.2671 89.9525 36.4437Z" fill="#939598"/>
<path id="Vector_23" d="M93.4401 36.6474C93.114 36.6474 92.7608 36.5931 92.4959 36.3746C92.1812 36.1131 92.085 35.7101 92.085 35.2765C92.085 34.8882 92.2084 34.4274 92.6182 34.1591C92.9374 33.952 93.3325 33.9089 93.7321 33.9089C94.0242 33.9089 94.3242 33.9282 94.6502 33.9554V34.4274C94.3706 34.4048 94.0242 34.3855 93.7559 34.3855C93.0065 34.3855 92.6884 34.6697 92.6884 35.2765C92.6884 35.8833 92.9838 36.1708 93.5363 36.1708C93.9311 36.1572 94.3236 36.1045 94.708 36.0135V36.4821C94.2917 36.5784 93.8671 36.6337 93.4401 36.6474Z" fill="#939598"/>
<path id="Vector_24" d="M96.2997 34.946C95.8468 34.946 95.677 35.1079 95.6419 35.3988H96.9484C96.9325 35.0841 96.748 34.946 96.2997 34.946ZM96.2182 36.6441C95.9001 36.6441 95.6114 36.6056 95.3963 36.429C95.1812 36.2524 95.085 35.949 95.085 35.6184C95.085 35.3229 95.1812 34.9924 95.4506 34.7999C95.6884 34.6312 95.9918 34.5973 96.2997 34.5973C96.5759 34.5973 96.9019 34.6279 97.1397 34.7931C97.451 35.0116 97.4793 35.3501 97.4793 35.7486H95.6385C95.6499 36.0452 95.8072 36.2365 96.3529 36.2365C96.6994 36.229 97.0449 36.1957 97.3865 36.1369V36.5173C97.001 36.5905 96.6104 36.6329 96.2182 36.6441Z" fill="#939598"/>
<path id="Vector_25" d="M99.8899 36.5933V35.5235C99.8899 35.1703 99.7099 35.0435 99.3873 35.0435C99.1195 35.0553 98.8538 35.0963 98.5948 35.1657V36.5944H98.0537V34.654H98.4952L98.5145 34.7774C98.852 34.6781 99.2001 34.6188 99.5514 34.6008C99.7901 34.5817 100.027 34.6528 100.216 34.8001C100.369 34.9382 100.427 35.1306 100.427 35.4069V36.5933H99.8899Z" fill="#939598"/>
<path id="Vector_26" d="M101.969 36.6475C101.708 36.6475 101.47 36.574 101.34 36.3702C101.233 36.194 101.184 35.9892 101.197 35.7838V35.057H100.806V34.654H101.197L101.255 34.0664H101.733V34.654H102.497V35.057H101.733V35.6796C101.726 35.805 101.744 35.9305 101.786 36.0487C101.844 36.1789 101.971 36.2287 102.14 36.2287C102.27 36.2263 102.4 36.2134 102.528 36.1902V36.5785C102.343 36.6184 102.156 36.6415 101.967 36.6475" fill="#939598"/>
<path id="Vector_27" d="M103.028 36.5931V34.6538H103.47L103.489 34.7772C103.799 34.6721 104.122 34.6126 104.449 34.6006C104.472 34.5993 104.495 34.5993 104.518 34.6006V35.0704C104.457 35.0704 104.383 35.0704 104.33 35.0704C104.073 35.0715 103.818 35.105 103.569 35.1701V36.6021L103.028 36.5931Z" fill="#939598"/>
<path id="Vector_28" d="M106.488 35.7793C106.261 35.76 106.035 35.7487 105.788 35.7487C105.393 35.7487 105.255 35.8291 105.255 36.0102C105.255 36.1913 105.368 36.2706 105.672 36.2706C105.947 36.2616 106.221 36.2236 106.488 36.1574V35.7793ZM106.601 36.5932L106.585 36.48C106.242 36.5768 105.888 36.6337 105.532 36.6498C105.326 36.6637 105.121 36.6139 104.944 36.5072C104.873 36.4525 104.816 36.3812 104.779 36.2995C104.741 36.2179 104.724 36.1282 104.729 36.0385C104.724 35.9281 104.753 35.8187 104.811 35.7249C104.87 35.631 104.955 35.5572 105.057 35.5132C105.26 35.417 105.532 35.4091 105.782 35.4091C105.986 35.4091 106.259 35.4204 106.485 35.4362V35.4011C106.485 35.0977 106.285 34.9981 105.74 34.9981C105.529 34.9981 105.272 35.0094 105.026 35.0321V34.6404C105.299 34.6177 105.606 34.603 105.859 34.603C106.199 34.603 106.546 34.6291 106.765 34.783C106.983 34.937 107.03 35.16 107.03 35.4476V36.5955L106.601 36.5932Z" fill="#939598"/>
<path id="Vector_29" d="M107.725 33.8365H108.267V36.5932H107.725V33.8365Z" fill="#939598"/>
</g>
<defs>
<clipPath id="clip0_783_442">
<rect width="108" height="38.3774" fill="white" transform="translate(0.314453 0.874756)"/>
</clipPath>
</defs>
</svg>
