<svg width="25" height="25" viewBox="0 0 25 25" fill="none" xmlns="http://www.w3.org/2000/svg">
<g id="twitter" clip-path="url(#clip0_783_397)">
<path id="Vector" d="M22.1267 7.61163C22.142 7.82482 22.142 8.03805 22.142 8.25124C22.142 14.7537 17.1927 22.2461 8.14705 22.2461C5.36023 22.2461 2.77142 21.439 0.59375 20.038C0.989703 20.0837 1.37037 20.0989 1.78156 20.0989C4.08102 20.0989 6.1978 19.3223 7.88816 17.9974C5.72572 17.9517 3.91353 16.5355 3.28916 14.5863C3.59375 14.6319 3.8983 14.6624 4.21812 14.6624C4.65973 14.6624 5.10139 14.6014 5.51253 14.4949C3.25873 14.038 1.56833 12.0583 1.56833 9.66747V9.60658C2.22312 9.97206 2.98461 10.2005 3.79166 10.2309C2.46678 9.34764 1.5988 7.84005 1.5988 6.13446C1.5988 5.22077 1.84241 4.38321 2.26883 3.65224C4.69016 6.637 8.32977 8.58621 12.4109 8.79944C12.3348 8.43396 12.2891 8.05328 12.2891 7.67257C12.2891 4.96188 14.482 2.75378 17.2079 2.75378C18.6241 2.75378 19.9033 3.34769 20.8018 4.30708C21.9134 4.09389 22.9794 3.68271 23.9236 3.11927C23.5581 4.26142 22.7815 5.22082 21.7612 5.82991C22.751 5.72336 23.7104 5.44919 24.5937 5.06852C23.9237 6.0431 23.0861 6.91108 22.1267 7.61163Z" fill="white"/>
</g>
<defs>
<clipPath id="clip0_783_397">
<rect width="24" height="24" fill="white" transform="translate(0.59375 0.5)"/>
</clipPath>
</defs>
</svg>
