<svg width="60" height="21" viewBox="0 0 60 21" fill="none" xmlns="http://www.w3.org/2000/svg">
<g id="visa logo">
<path id="Vector" d="M21.7212 19.3373L24.5805 2.55787H29.154L26.2925 19.3373H21.7212ZM42.8163 2.91959C41.9104 2.57964 40.4904 2.21484 38.7174 2.21484C34.198 2.21484 31.0148 4.49064 30.9876 7.75233C30.9621 10.1634 33.2603 11.5085 34.995 12.311C36.7754 13.1337 37.3738 13.6581 37.3652 14.3924C37.3538 15.5173 35.9436 16.0309 34.6289 16.0309C32.7984 16.0309 31.8259 15.7766 30.3239 15.1503L29.7343 14.8837L29.0926 18.6398C30.1608 19.1084 32.1361 19.514 34.1873 19.5351C38.995 19.5351 42.116 17.2853 42.1515 13.8021C42.1686 11.8933 40.9501 10.4408 38.3114 9.24316C36.7128 8.46693 35.7338 7.94896 35.7442 7.16296C35.7442 6.4655 36.5729 5.7197 38.3636 5.7197C39.859 5.69647 40.9426 6.02262 41.7867 6.36256L42.1965 6.55619L42.8163 2.91959ZM54.5857 2.55761H51.0517C49.957 2.55761 49.1376 2.85642 48.6569 3.9491L41.8644 19.3262H46.6671C46.6671 19.3262 47.4522 17.2587 47.6298 16.8047C48.1546 16.8047 52.8202 16.8119 53.4871 16.8119C53.6239 17.3994 54.0436 19.3262 54.0436 19.3262H58.2875L54.5857 2.5571V2.55761ZM48.9786 13.3928C49.3569 12.426 50.8008 8.70213 50.8008 8.70213C50.7739 8.74679 51.1764 7.73064 51.4072 7.10064L51.7163 8.54733C51.7163 8.54733 52.592 12.5527 52.7751 13.3925H48.9786V13.3928ZM17.8385 2.55761L13.3609 14.0005L12.8839 11.6751C12.0503 8.9945 9.45321 6.09024 6.5498 4.63627L10.6441 19.3106L15.4831 19.3052L22.6835 2.55744L17.8385 2.55736" fill="#0E4595"/>
<path id="Vector_2" d="M9.18242 2.55701H1.80748L1.74902 2.90612C7.48665 4.29504 11.283 7.65152 12.8593 11.685L11.2557 3.97412C10.9789 2.91161 10.1759 2.59446 9.18259 2.55743" fill="#F2AE14"/>
</g>
</svg>
