<svg width="25" height="25" viewBox="0 0 25 25" fill="none" xmlns="http://www.w3.org/2000/svg">
<g id="youtube">
<path id="Vector" d="M23.4959 7.00346C23.2342 6.01804 22.4631 5.24196 21.4841 4.97858C19.7095 4.5 12.5936 4.5 12.5936 4.5C12.5936 4.5 5.47778 4.5 3.70315 4.97858C2.72411 5.242 1.95303 6.01804 1.69132 7.00346C1.21582 8.78958 1.21582 12.5162 1.21582 12.5162C1.21582 12.5162 1.21582 16.2427 1.69132 18.0289C1.95303 19.0143 2.72411 19.758 3.70315 20.0214C5.47778 20.5 12.5936 20.5 12.5936 20.5C12.5936 20.5 19.7094 20.5 21.4841 20.0214C22.4631 19.758 23.2342 19.0143 23.4959 18.0289C23.9714 16.2427 23.9714 12.5162 23.9714 12.5162C23.9714 12.5162 23.9714 8.78958 23.4959 7.00346ZM10.2663 15.8996V9.13271L16.2138 12.5162L10.2663 15.8996Z" fill="white"/>
</g>
</svg>
