<svg width="68" height="68" viewBox="0 0 68 68" fill="none" xmlns="http://www.w3.org/2000/svg">
<g id="icon / ticket" clip-path="url(#clip0_783_3177)">
<path id="Vector" d="M36.0504 43.4045L36.8636 36.8638L43.4043 36.0506L37.4646 32.9393L38.0303 26.5754L33.7877 30.818L27.9894 27.9896L30.8178 33.7879L26.5752 38.0305L32.9391 37.4648L36.0504 43.4045ZM33.2927 57.3345C32.6799 57.9474 31.9728 58.2538 31.1714 58.2538C30.37 58.2538 29.6629 57.9474 29.05 57.3345L23.6407 51.9252C24.3242 50.8645 24.6071 49.6978 24.4892 48.425C24.3714 47.1522 23.841 46.0444 22.8982 45.1016C21.9554 44.1588 20.8417 43.6225 19.5571 43.4929C18.2726 43.3633 17.1117 43.652 16.0746 44.3591L10.6653 38.9498C10.0524 38.3369 9.74603 37.6298 9.74603 36.8284C9.74603 36.027 10.0524 35.3199 10.6653 34.7071L34.7069 10.6655C35.3197 10.0527 36.0268 9.74624 36.8282 9.74624C37.6296 9.74624 38.3367 10.0527 38.9495 10.6655L44.3589 16.0748C43.6518 17.1119 43.3631 18.2728 43.4927 19.5573C43.6223 20.8419 44.1586 21.9556 45.1014 22.8984C46.0442 23.8412 47.152 24.3716 48.4248 24.4894C49.6976 24.6073 50.8643 24.3244 51.9249 23.6409L57.3343 29.0503C57.9471 29.6631 58.2536 30.3702 58.2536 31.1716C58.2536 31.973 57.9471 32.6801 57.3343 33.2929L33.2927 57.3345ZM31.1714 55.2132L55.213 31.1716L51.3593 27.3178C49.8508 27.6007 48.3541 27.5653 46.8691 27.2118C45.3842 26.8582 44.0878 26.1275 42.98 25.0197C41.8722 23.9119 41.1416 22.6156 40.788 21.1307C40.4345 19.6457 40.3991 18.149 40.6819 16.6405L36.8282 12.7868L12.7866 36.8284L16.6403 40.6822C18.1724 40.3757 19.675 40.4052 21.1481 40.7706C22.6213 41.1359 23.9117 41.8725 25.0195 42.9803C26.1273 44.0881 26.8639 45.3785 27.2292 46.8517C27.5946 48.3248 27.624 49.8274 27.3176 51.3595L31.1714 55.2132Z" fill="#002E6A"/>
</g>
<defs>
<clipPath id="clip0_783_3177">
<rect width="48" height="48" fill="white" transform="translate(0.0585938 34) rotate(-45)"/>
</clipPath>
</defs>
</svg>
